<svg width="292" height="200" viewBox="0 0 292 200" fill="none" xmlns="http://www.w3.org/2000/svg">
<path d="M0 16C0 11.5817 3.58172 8 8 8H284C288.418 8 292 11.5817 292 16V192C292 196.418 288.418 200 284 200H8C3.58173 200 0 196.418 0 192V16Z" fill="#F8FBFD" fill-opacity="0.1"/>
<circle cx="68" cy="76" r="60" fill="#00D4FF"/>
<g filter="url(#filter0_bdd_4_179)">
<path fill-rule="evenodd" clip-rule="evenodd" d="M75 35H125C138.807 35 150 46.1929 150 60V65C150 76.0457 141.046 85 130 85H127.818C124.109 85 120.349 84.4404 116.774 83.3625C105.929 80.0928 94.214 80.0588 83.3278 83.3746C79.7897 84.4522 76.1114 85 72.4127 85H70C58.9543 85 50 76.0457 50 65V60C50 46.1929 61.1929 35 75 35ZM40 60C40 40.67 55.67 25 75 25H125C144.33 25 160 40.67 160 60V65C160 81.5685 146.569 95 130 95H127.818C123.118 95 118.387 94.2934 113.887 92.9368C104.908 90.2299 95.2124 90.2082 86.2416 92.9407C81.7589 94.306 77.0987 95 72.4127 95H70C53.4315 95 40 81.5685 40 65V60ZM83.6445 53C80.8831 53 78.6445 55.2386 78.6445 58C78.6445 60.7614 80.8831 63 83.6445 63H116.355C119.117 63 121.355 60.7614 121.355 58C121.355 55.2386 119.117 53 116.355 53H83.6445Z" fill="url(#paint0_linear_4_179)"/>
</g>
<path d="M31.68 161.16V175H29.86V164.68L25.26 175H23.98L19.36 164.66V175H17.54V161.16H19.5L24.62 172.6L29.74 161.16H31.68ZM44.7666 169.1C44.7666 169.447 44.7466 169.813 44.7066 170.2H35.9466C36.0132 171.28 36.3799 172.127 37.0466 172.74C37.7266 173.34 38.5466 173.64 39.5066 173.64C40.2932 173.64 40.9466 173.46 41.4666 173.1C41.9999 172.727 42.3732 172.233 42.5866 171.62H44.5466C44.2532 172.673 43.6666 173.533 42.7866 174.2C41.9066 174.853 40.8132 175.18 39.5066 175.18C38.4666 175.18 37.5332 174.947 36.7066 174.48C35.8932 174.013 35.2532 173.353 34.7866 172.5C34.3199 171.633 34.0866 170.633 34.0866 169.5C34.0866 168.367 34.3132 167.373 34.7666 166.52C35.2199 165.667 35.8532 165.013 36.6666 164.56C37.4932 164.093 38.4399 163.86 39.5066 163.86C40.5466 163.86 41.4666 164.087 42.2666 164.54C43.0666 164.993 43.6799 165.62 44.1066 166.42C44.5466 167.207 44.7666 168.1 44.7666 169.1ZM42.8866 168.72C42.8866 168.027 42.7332 167.433 42.4266 166.94C42.1199 166.433 41.6999 166.053 41.1666 165.8C40.6466 165.533 40.0666 165.4 39.4266 165.4C38.5066 165.4 37.7199 165.693 37.0666 166.28C36.4266 166.867 36.0599 167.68 35.9666 168.72H42.8866ZM49.3889 165.54V172C49.3889 172.533 49.5022 172.913 49.7289 173.14C49.9556 173.353 50.3489 173.46 50.9089 173.46H52.2489V175H50.6089C49.5956 175 48.8356 174.767 48.3289 174.3C47.8222 173.833 47.5689 173.067 47.5689 172V165.54H46.1489V164.04H47.5689V161.28H49.3889V164.04H52.2489V165.54H49.3889ZM53.7741 169.48C53.7741 168.36 54.0007 167.38 54.4541 166.54C54.9074 165.687 55.5274 165.027 56.3141 164.56C57.1141 164.093 58.0007 163.86 58.9741 163.86C59.9341 163.86 60.7674 164.067 61.4741 164.48C62.1807 164.893 62.7074 165.413 63.0541 166.04V164.04H64.8941V175H63.0541V172.96C62.6941 173.6 62.1541 174.133 61.4341 174.56C60.7274 174.973 59.9007 175.18 58.9541 175.18C57.9807 175.18 57.1007 174.94 56.3141 174.46C55.5274 173.98 54.9074 173.307 54.4541 172.44C54.0007 171.573 53.7741 170.587 53.7741 169.48ZM63.0541 169.5C63.0541 168.673 62.8874 167.953 62.5541 167.34C62.2207 166.727 61.7674 166.26 61.1941 165.94C60.6341 165.607 60.0141 165.44 59.3341 165.44C58.6541 165.44 58.0341 165.6 57.4741 165.92C56.9141 166.24 56.4674 166.707 56.1341 167.32C55.8007 167.933 55.6341 168.653 55.6341 169.48C55.6341 170.32 55.8007 171.053 56.1341 171.68C56.4674 172.293 56.9141 172.767 57.4741 173.1C58.0341 173.42 58.6541 173.58 59.3341 173.58C60.0141 173.58 60.6341 173.42 61.1941 173.1C61.7674 172.767 62.2207 172.293 62.5541 171.68C62.8874 171.053 63.0541 170.327 63.0541 169.5ZM72.0497 173.32L75.4497 164.04H77.3897L73.0897 175H70.9697L66.6697 164.04H68.6297L72.0497 173.32ZM89.1806 169.1C89.1806 169.447 89.1606 169.813 89.1206 170.2H80.3606C80.4273 171.28 80.794 172.127 81.4606 172.74C82.1406 173.34 82.9606 173.64 83.9206 173.64C84.7073 173.64 85.3606 173.46 85.8806 173.1C86.414 172.727 86.7873 172.233 87.0006 171.62H88.9606C88.6673 172.673 88.0806 173.533 87.2006 174.2C86.3206 174.853 85.2273 175.18 83.9206 175.18C82.8806 175.18 81.9473 174.947 81.1206 174.48C80.3073 174.013 79.6673 173.353 79.2006 172.5C78.734 171.633 78.5006 170.633 78.5006 169.5C78.5006 168.367 78.7273 167.373 79.1806 166.52C79.634 165.667 80.2673 165.013 81.0806 164.56C81.9073 164.093 82.854 163.86 83.9206 163.86C84.9606 163.86 85.8806 164.087 86.6806 164.54C87.4806 164.993 88.094 165.62 88.5206 166.42C88.9606 167.207 89.1806 168.1 89.1806 169.1ZM87.3006 168.72C87.3006 168.027 87.1473 167.433 86.8406 166.94C86.534 166.433 86.114 166.053 85.5806 165.8C85.0606 165.533 84.4806 165.4 83.8406 165.4C82.9206 165.4 82.134 165.693 81.4806 166.28C80.8406 166.867 80.474 167.68 80.3806 168.72H87.3006ZM93.403 165.82C93.723 165.193 94.1763 164.707 94.763 164.36C95.363 164.013 96.0896 163.84 96.943 163.84V165.72H96.463C94.423 165.72 93.403 166.827 93.403 169.04V175H91.583V164.04H93.403V165.82ZM102.924 175.18C102.084 175.18 101.331 175.04 100.664 174.76C99.9972 174.467 99.4706 174.067 99.0839 173.56C98.6972 173.04 98.4839 172.447 98.4439 171.78H100.324C100.377 172.327 100.631 172.773 101.084 173.12C101.551 173.467 102.157 173.64 102.904 173.64C103.597 173.64 104.144 173.487 104.544 173.18C104.944 172.873 105.144 172.487 105.144 172.02C105.144 171.54 104.931 171.187 104.504 170.96C104.077 170.72 103.417 170.487 102.524 170.26C101.711 170.047 101.044 169.833 100.524 169.62C100.017 169.393 99.5772 169.067 99.2039 168.64C98.8439 168.2 98.6639 167.627 98.6639 166.92C98.6639 166.36 98.8306 165.847 99.1639 165.38C99.4972 164.913 99.9706 164.547 100.584 164.28C101.197 164 101.897 163.86 102.684 163.86C103.897 163.86 104.877 164.167 105.624 164.78C106.371 165.393 106.771 166.233 106.824 167.3H105.004C104.964 166.727 104.731 166.267 104.304 165.92C103.891 165.573 103.331 165.4 102.624 165.4C101.971 165.4 101.451 165.54 101.064 165.82C100.677 166.1 100.484 166.467 100.484 166.92C100.484 167.28 100.597 167.58 100.824 167.82C101.064 168.047 101.357 168.233 101.704 168.38C102.064 168.513 102.557 168.667 103.184 168.84C103.971 169.053 104.611 169.267 105.104 169.48C105.597 169.68 106.017 169.987 106.364 170.4C106.724 170.813 106.911 171.353 106.924 172.02C106.924 172.62 106.757 173.16 106.424 173.64C106.091 174.12 105.617 174.5 105.004 174.78C104.404 175.047 103.711 175.18 102.924 175.18ZM119.493 169.1C119.493 169.447 119.473 169.813 119.433 170.2H110.673C110.74 171.28 111.106 172.127 111.773 172.74C112.453 173.34 113.273 173.64 114.233 173.64C115.02 173.64 115.673 173.46 116.193 173.1C116.726 172.727 117.1 172.233 117.313 171.62H119.273C118.98 172.673 118.393 173.533 117.513 174.2C116.633 174.853 115.54 175.18 114.233 175.18C113.193 175.18 112.26 174.947 111.433 174.48C110.62 174.013 109.98 173.353 109.513 172.5C109.046 171.633 108.813 170.633 108.813 169.5C108.813 168.367 109.04 167.373 109.493 166.52C109.946 165.667 110.58 165.013 111.393 164.56C112.22 164.093 113.166 163.86 114.233 163.86C115.273 163.86 116.193 164.087 116.993 164.54C117.793 164.993 118.406 165.62 118.833 166.42C119.273 167.207 119.493 168.1 119.493 169.1ZM117.613 168.72C117.613 168.027 117.46 167.433 117.153 166.94C116.846 166.433 116.426 166.053 115.893 165.8C115.373 165.533 114.793 165.4 114.153 165.4C113.233 165.4 112.446 165.693 111.793 166.28C111.153 166.867 110.786 167.68 110.693 168.72H117.613ZM125.775 175.18C124.935 175.18 124.182 175.04 123.515 174.76C122.849 174.467 122.322 174.067 121.935 173.56C121.549 173.04 121.335 172.447 121.295 171.78H123.175C123.229 172.327 123.482 172.773 123.935 173.12C124.402 173.467 125.009 173.64 125.755 173.64C126.449 173.64 126.995 173.487 127.395 173.18C127.795 172.873 127.995 172.487 127.995 172.02C127.995 171.54 127.782 171.187 127.355 170.96C126.929 170.72 126.269 170.487 125.375 170.26C124.562 170.047 123.895 169.833 123.375 169.62C122.869 169.393 122.429 169.067 122.055 168.64C121.695 168.2 121.515 167.627 121.515 166.92C121.515 166.36 121.682 165.847 122.015 165.38C122.349 164.913 122.822 164.547 123.435 164.28C124.049 164 124.749 163.86 125.535 163.86C126.749 163.86 127.729 164.167 128.475 164.78C129.222 165.393 129.622 166.233 129.675 167.3H127.855C127.815 166.727 127.582 166.267 127.155 165.92C126.742 165.573 126.182 165.4 125.475 165.4C124.822 165.4 124.302 165.54 123.915 165.82C123.529 166.1 123.335 166.467 123.335 166.92C123.335 167.28 123.449 167.58 123.675 167.82C123.915 168.047 124.209 168.233 124.555 168.38C124.915 168.513 125.409 168.667 126.035 168.84C126.822 169.053 127.462 169.267 127.955 169.48C128.449 169.68 128.869 169.987 129.215 170.4C129.575 170.813 129.762 171.353 129.775 172.02C129.775 172.62 129.609 173.16 129.275 173.64C128.942 174.12 128.469 174.5 127.855 174.78C127.255 175.047 126.562 175.18 125.775 175.18Z" fill="white"/>
<path d="M0.5 16C0.5 11.8579 3.85786 8.5 8 8.5H284C288.142 8.5 291.5 11.8579 291.5 16V192C291.5 196.142 288.142 199.5 284 199.5H8C3.85787 199.5 0.5 196.142 0.5 192V16Z" stroke="white" stroke-opacity="0.1"/>
<defs>
<filter id="filter0_bdd_4_179" x="16" y="17" width="168" height="118" filterUnits="userSpaceOnUse" color-interpolation-filters="sRGB">
<feFlood flood-opacity="0" result="BackgroundImageFix"/>
<feGaussianBlur in="BackgroundImage" stdDeviation="4"/>
<feComposite in2="SourceAlpha" operator="in" result="effect1_backgroundBlur_4_179"/>
<feColorMatrix in="SourceAlpha" type="matrix" values="0 0 0 0 0 0 0 0 0 0 0 0 0 0 0 0 0 0 127 0" result="hardAlpha"/>
<feOffset dy="16"/>
<feGaussianBlur stdDeviation="12"/>
<feComposite in2="hardAlpha" operator="out"/>
<feColorMatrix type="matrix" values="0 0 0 0 0.123854 0 0 0 0 0.24795 0 0 0 0 0.3625 0 0 0 0.25 0"/>
<feBlend mode="normal" in2="effect1_backgroundBlur_4_179" result="effect2_dropShadow_4_179"/>
<feColorMatrix in="SourceAlpha" type="matrix" values="0 0 0 0 0 0 0 0 0 0 0 0 0 0 0 0 0 0 127 0" result="hardAlpha"/>
<feOffset dy="16"/>
<feGaussianBlur stdDeviation="4"/>
<feComposite in2="hardAlpha" operator="out"/>
<feColorMatrix type="matrix" values="0 0 0 0 0.101961 0 0 0 0 0.184314 0 0 0 0 0.262745 0 0 0 0.03 0"/>
<feBlend mode="normal" in2="effect2_dropShadow_4_179" result="effect3_dropShadow_4_179"/>
<feBlend mode="normal" in="SourceGraphic" in2="effect3_dropShadow_4_179" result="shape"/>
</filter>
<linearGradient id="paint0_linear_4_179" x1="100" y1="25" x2="100" y2="95" gradientUnits="userSpaceOnUse">
<stop stop-color="#FF0CBB"/>
<stop offset="1" stop-color="#0047FF"/>
</linearGradient>
</defs>
</svg>
