<svg width="292" height="200" viewBox="0 0 292 200" fill="none" xmlns="http://www.w3.org/2000/svg">
<path d="M0 16C0 11.5817 3.58172 8 8 8H284C288.418 8 292 11.5817 292 16V192C292 196.418 288.418 200 284 200H8C3.58173 200 0 196.418 0 192V16Z" fill="#F8FBFD" fill-opacity="0.1"/>
<circle cx="68" cy="76" r="60" fill="#00D4FF"/>
<g filter="url(#filter0_bdd_4_180)">
<path fill-rule="evenodd" clip-rule="evenodd" d="M79.0871 40.4849C78.4205 40.8698 78.4204 41.832 79.087 42.2169L98.5299 53.446C99.4583 53.9821 100.602 53.9822 101.531 53.446L120.943 42.2352C121.609 41.8502 121.609 40.8881 120.943 40.5032L101.499 29.2774C100.571 28.7415 99.4273 28.7415 98.4991 29.2774L79.0871 40.4849ZM93.4551 87.8104C94.1217 88.1953 94.9551 87.7142 94.9551 86.9444V64.661C94.9551 63.5892 94.3833 62.5989 93.4552 62.063L74.1426 50.9113C73.476 50.5263 72.6426 51.0075 72.6426 51.7773V74.0622C72.6426 75.134 73.2144 76.1244 74.1426 76.6603L93.4551 87.8104ZM127.356 74.0622C127.356 75.134 126.784 76.1244 125.856 76.6603L106.605 87.7744C105.939 88.1593 105.105 87.6782 105.105 86.9084V64.661C105.105 63.5893 105.677 62.5989 106.605 62.063L125.856 50.9483C126.522 50.5634 127.356 51.0445 127.356 51.8144V74.0622ZM137.356 40.7416C137.356 39.3125 136.593 37.992 135.356 37.2775L101.999 18.0191C100.762 17.3045 99.2367 17.3046 97.9991 18.0191L64.6426 37.2775C63.405 37.992 62.6426 39.3125 62.6426 40.7416V79.2584C62.6426 80.6874 63.405 82.008 64.6426 82.7225L97.9991 101.981C99.2367 102.695 100.762 102.695 101.999 101.981L135.356 82.7225C136.593 82.008 137.356 80.6874 137.356 79.2584V40.7416Z" fill="url(#paint0_linear_4_180)"/>
</g>
<path d="M17.2 164.18C17.2933 162.953 17.7667 161.993 18.62 161.3C19.4733 160.607 20.58 160.26 21.94 160.26C22.8467 160.26 23.6267 160.427 24.28 160.76C24.9467 161.08 25.4467 161.52 25.78 162.08C26.1267 162.64 26.3 163.273 26.3 163.98C26.3 164.807 26.06 165.52 25.58 166.12C25.1133 166.72 24.5 167.107 23.74 167.28V167.38C24.6067 167.593 25.2933 168.013 25.8 168.64C26.3067 169.267 26.56 170.087 26.56 171.1C26.56 171.86 26.3867 172.547 26.04 173.16C25.6933 173.76 25.1733 174.233 24.48 174.58C23.7867 174.927 22.9533 175.1 21.98 175.1C20.5667 175.1 19.4067 174.733 18.5 174C17.5933 173.253 17.0867 172.2 16.98 170.84H18.74C18.8333 171.64 19.16 172.293 19.72 172.8C20.28 173.307 21.0267 173.56 21.96 173.56C22.8933 173.56 23.6 173.32 24.08 172.84C24.5733 172.347 24.82 171.713 24.82 170.94C24.82 169.94 24.4867 169.22 23.82 168.78C23.1533 168.34 22.1467 168.12 20.8 168.12H20.34V166.6H20.82C22.0467 166.587 22.9733 166.387 23.6 166C24.2267 165.6 24.54 164.987 24.54 164.16C24.54 163.453 24.3067 162.887 23.84 162.46C23.3867 162.033 22.7333 161.82 21.88 161.82C21.0533 161.82 20.3867 162.033 19.88 162.46C19.3733 162.887 19.0733 163.46 18.98 164.18H17.2ZM33.6573 161.06C35.1773 161.06 36.4907 161.347 37.5973 161.92C38.7173 162.48 39.5707 163.287 40.1573 164.34C40.7573 165.393 41.0573 166.633 41.0573 168.06C41.0573 169.487 40.7573 170.727 40.1573 171.78C39.5707 172.82 38.7173 173.62 37.5973 174.18C36.4907 174.727 35.1773 175 33.6573 175H29.3173V161.06H33.6573ZM33.6573 173.5C35.4573 173.5 36.8307 173.027 37.7773 172.08C38.724 171.12 39.1973 169.78 39.1973 168.06C39.1973 166.327 38.7173 164.973 37.7573 164C36.8107 163.027 35.444 162.54 33.6573 162.54H31.1373V173.5H33.6573ZM48.11 169.48C48.11 168.36 48.3367 167.38 48.79 166.54C49.2433 165.687 49.8633 165.027 50.65 164.56C51.45 164.093 52.3367 163.86 53.31 163.86C54.27 163.86 55.1033 164.067 55.81 164.48C56.5167 164.893 57.0433 165.413 57.39 166.04V164.04H59.23V175H57.39V172.96C57.03 173.6 56.49 174.133 55.77 174.56C55.0633 174.973 54.2367 175.18 53.29 175.18C52.3167 175.18 51.4367 174.94 50.65 174.46C49.8633 173.98 49.2433 173.307 48.79 172.44C48.3367 171.573 48.11 170.587 48.11 169.48ZM57.39 169.5C57.39 168.673 57.2233 167.953 56.89 167.34C56.5567 166.727 56.1033 166.26 55.53 165.94C54.97 165.607 54.35 165.44 53.67 165.44C52.99 165.44 52.37 165.6 51.81 165.92C51.25 166.24 50.8033 166.707 50.47 167.32C50.1367 167.933 49.97 168.653 49.97 169.48C49.97 170.32 50.1367 171.053 50.47 171.68C50.8033 172.293 51.25 172.767 51.81 173.1C52.37 173.42 52.99 173.58 53.67 173.58C54.35 173.58 54.97 173.42 55.53 173.1C56.1033 172.767 56.5567 172.293 56.89 171.68C57.2233 171.053 57.39 170.327 57.39 169.5ZM64.1256 166.06C64.4856 165.433 65.019 164.913 65.7256 164.5C66.4456 164.073 67.279 163.86 68.2256 163.86C69.199 163.86 70.079 164.093 70.8656 164.56C71.6656 165.027 72.2923 165.687 72.7456 166.54C73.199 167.38 73.4256 168.36 73.4256 169.48C73.4256 170.587 73.199 171.573 72.7456 172.44C72.2923 173.307 71.6656 173.98 70.8656 174.46C70.079 174.94 69.199 175.18 68.2256 175.18C67.2923 175.18 66.4656 174.973 65.7456 174.56C65.039 174.133 64.499 173.607 64.1256 172.98V180.2H62.3056V164.04H64.1256V166.06ZM71.5656 169.48C71.5656 168.653 71.399 167.933 71.0656 167.32C70.7323 166.707 70.279 166.24 69.7056 165.92C69.1456 165.6 68.5256 165.44 67.8456 165.44C67.179 165.44 66.559 165.607 65.9856 165.94C65.4256 166.26 64.9723 166.733 64.6256 167.36C64.2923 167.973 64.1256 168.687 64.1256 169.5C64.1256 170.327 64.2923 171.053 64.6256 171.68C64.9723 172.293 65.4256 172.767 65.9856 173.1C66.559 173.42 67.179 173.58 67.8456 173.58C68.5256 173.58 69.1456 173.42 69.7056 173.1C70.279 172.767 70.7323 172.293 71.0656 171.68C71.399 171.053 71.5656 170.32 71.5656 169.48ZM77.6413 166.06C78.0013 165.433 78.5346 164.913 79.2413 164.5C79.9613 164.073 80.7946 163.86 81.7413 163.86C82.7146 163.86 83.5946 164.093 84.3812 164.56C85.1812 165.027 85.8079 165.687 86.2613 166.54C86.7146 167.38 86.9413 168.36 86.9413 169.48C86.9413 170.587 86.7146 171.573 86.2613 172.44C85.8079 173.307 85.1812 173.98 84.3812 174.46C83.5946 174.94 82.7146 175.18 81.7413 175.18C80.8079 175.18 79.9813 174.973 79.2613 174.56C78.5546 174.133 78.0146 173.607 77.6413 172.98V180.2H75.8213V164.04H77.6413V166.06ZM85.0813 169.48C85.0813 168.653 84.9146 167.933 84.5813 167.32C84.2479 166.707 83.7946 166.24 83.2213 165.92C82.6613 165.6 82.0413 165.44 81.3613 165.44C80.6946 165.44 80.0746 165.607 79.5013 165.94C78.9413 166.26 78.4879 166.733 78.1413 167.36C77.8079 167.973 77.6413 168.687 77.6413 169.5C77.6413 170.327 77.8079 171.053 78.1413 171.68C78.4879 172.293 78.9413 172.767 79.5013 173.1C80.0746 173.42 80.6946 173.58 81.3613 173.58C82.0413 173.58 82.6613 173.42 83.2213 173.1C83.7946 172.767 84.2479 172.293 84.5813 171.68C84.9146 171.053 85.0813 170.32 85.0813 169.48ZM91.1569 160.2V175H89.3369V160.2H91.1569ZM95.1988 162.26C94.8521 162.26 94.5588 162.14 94.3188 161.9C94.0788 161.66 93.9588 161.367 93.9588 161.02C93.9588 160.673 94.0788 160.38 94.3188 160.14C94.5588 159.9 94.8521 159.78 95.1988 159.78C95.5321 159.78 95.8121 159.9 96.0388 160.14C96.2788 160.38 96.3988 160.673 96.3988 161.02C96.3988 161.367 96.2788 161.66 96.0388 161.9C95.8121 162.14 95.5321 162.26 95.1988 162.26ZM96.0788 164.04V175H94.2588V164.04H96.0788ZM98.5006 169.5C98.5006 168.367 98.7273 167.38 99.1806 166.54C99.634 165.687 100.261 165.027 101.061 164.56C101.874 164.093 102.801 163.86 103.841 163.86C105.187 163.86 106.294 164.187 107.161 164.84C108.041 165.493 108.621 166.4 108.901 167.56H106.941C106.754 166.893 106.387 166.367 105.841 165.98C105.307 165.593 104.641 165.4 103.841 165.4C102.801 165.4 101.961 165.76 101.321 166.48C100.681 167.187 100.361 168.193 100.361 169.5C100.361 170.82 100.681 171.84 101.321 172.56C101.961 173.28 102.801 173.64 103.841 173.64C104.641 173.64 105.307 173.453 105.841 173.08C106.374 172.707 106.741 172.173 106.941 171.48H108.901C108.607 172.6 108.021 173.5 107.141 174.18C106.261 174.847 105.161 175.18 103.841 175.18C102.801 175.18 101.874 174.947 101.061 174.48C100.261 174.013 99.634 173.353 99.1806 172.5C98.7273 171.647 98.5006 170.647 98.5006 169.5ZM110.649 169.48C110.649 168.36 110.876 167.38 111.329 166.54C111.782 165.687 112.402 165.027 113.189 164.56C113.989 164.093 114.876 163.86 115.849 163.86C116.809 163.86 117.642 164.067 118.349 164.48C119.056 164.893 119.582 165.413 119.929 166.04V164.04H121.769V175H119.929V172.96C119.569 173.6 119.029 174.133 118.309 174.56C117.602 174.973 116.776 175.18 115.829 175.18C114.856 175.18 113.976 174.94 113.189 174.46C112.402 173.98 111.782 173.307 111.329 172.44C110.876 171.573 110.649 170.587 110.649 169.48ZM119.929 169.5C119.929 168.673 119.762 167.953 119.429 167.34C119.096 166.727 118.642 166.26 118.069 165.94C117.509 165.607 116.889 165.44 116.209 165.44C115.529 165.44 114.909 165.6 114.349 165.92C113.789 166.24 113.342 166.707 113.009 167.32C112.676 167.933 112.509 168.653 112.509 169.48C112.509 170.32 112.676 171.053 113.009 171.68C113.342 172.293 113.789 172.767 114.349 173.1C114.909 173.42 115.529 173.58 116.209 173.58C116.889 173.58 117.509 173.42 118.069 173.1C118.642 172.767 119.096 172.293 119.429 171.68C119.762 171.053 119.929 170.327 119.929 169.5ZM127.065 165.54V172C127.065 172.533 127.178 172.913 127.405 173.14C127.631 173.353 128.025 173.46 128.585 173.46H129.925V175H128.285C127.271 175 126.511 174.767 126.005 174.3C125.498 173.833 125.245 173.067 125.245 172V165.54H123.825V164.04H125.245V161.28H127.065V164.04H129.925V165.54H127.065ZM133.07 162.26C132.723 162.26 132.43 162.14 132.19 161.9C131.95 161.66 131.83 161.367 131.83 161.02C131.83 160.673 131.95 160.38 132.19 160.14C132.43 159.9 132.723 159.78 133.07 159.78C133.403 159.78 133.683 159.9 133.91 160.14C134.15 160.38 134.27 160.673 134.27 161.02C134.27 161.367 134.15 161.66 133.91 161.9C133.683 162.14 133.403 162.26 133.07 162.26ZM133.95 164.04V175H132.13V164.04H133.95ZM141.832 175.18C140.805 175.18 139.872 174.947 139.032 174.48C138.205 174.013 137.552 173.353 137.072 172.5C136.605 171.633 136.372 170.633 136.372 169.5C136.372 168.38 136.612 167.393 137.092 166.54C137.585 165.673 138.252 165.013 139.092 164.56C139.932 164.093 140.872 163.86 141.912 163.86C142.952 163.86 143.892 164.093 144.732 164.56C145.572 165.013 146.232 165.667 146.712 166.52C147.205 167.373 147.452 168.367 147.452 169.5C147.452 170.633 147.198 171.633 146.692 172.5C146.198 173.353 145.525 174.013 144.672 174.48C143.818 174.947 142.872 175.18 141.832 175.18ZM141.832 173.58C142.485 173.58 143.098 173.427 143.672 173.12C144.245 172.813 144.705 172.353 145.052 171.74C145.412 171.127 145.592 170.38 145.592 169.5C145.592 168.62 145.418 167.873 145.072 167.26C144.725 166.647 144.272 166.193 143.712 165.9C143.152 165.593 142.545 165.44 141.892 165.44C141.225 165.44 140.612 165.593 140.052 165.9C139.505 166.193 139.065 166.647 138.732 167.26C138.398 167.873 138.232 168.62 138.232 169.5C138.232 170.393 138.392 171.147 138.712 171.76C139.045 172.373 139.485 172.833 140.032 173.14C140.578 173.433 141.178 173.58 141.832 173.58ZM155.185 163.84C156.518 163.84 157.598 164.247 158.425 165.06C159.251 165.86 159.665 167.02 159.665 168.54V175H157.865V168.8C157.865 167.707 157.591 166.873 157.045 166.3C156.498 165.713 155.751 165.42 154.805 165.42C153.845 165.42 153.078 165.72 152.505 166.32C151.945 166.92 151.665 167.793 151.665 168.94V175H149.845V164.04H151.665V165.6C152.025 165.04 152.511 164.607 153.125 164.3C153.751 163.993 154.438 163.84 155.185 163.84ZM166.518 175.18C165.678 175.18 164.924 175.04 164.258 174.76C163.591 174.467 163.064 174.067 162.678 173.56C162.291 173.04 162.078 172.447 162.038 171.78H163.918C163.971 172.327 164.224 172.773 164.678 173.12C165.144 173.467 165.751 173.64 166.498 173.64C167.191 173.64 167.738 173.487 168.138 173.18C168.538 172.873 168.738 172.487 168.738 172.02C168.738 171.54 168.524 171.187 168.098 170.96C167.671 170.72 167.011 170.487 166.118 170.26C165.304 170.047 164.638 169.833 164.118 169.62C163.611 169.393 163.171 169.067 162.798 168.64C162.438 168.2 162.258 167.627 162.258 166.92C162.258 166.36 162.424 165.847 162.758 165.38C163.091 164.913 163.564 164.547 164.178 164.28C164.791 164 165.491 163.86 166.278 163.86C167.491 163.86 168.471 164.167 169.218 164.78C169.964 165.393 170.364 166.233 170.418 167.3H168.598C168.558 166.727 168.324 166.267 167.898 165.92C167.484 165.573 166.924 165.4 166.218 165.4C165.564 165.4 165.044 165.54 164.658 165.82C164.271 166.1 164.078 166.467 164.078 166.92C164.078 167.28 164.191 167.58 164.418 167.82C164.658 168.047 164.951 168.233 165.298 168.38C165.658 168.513 166.151 168.667 166.778 168.84C167.564 169.053 168.204 169.267 168.698 169.48C169.191 169.68 169.611 169.987 169.958 170.4C170.318 170.813 170.504 171.353 170.518 172.02C170.518 172.62 170.351 173.16 170.018 173.64C169.684 174.12 169.211 174.5 168.598 174.78C167.998 175.047 167.304 175.18 166.518 175.18Z" fill="white"/>
<path d="M8 8.5H284C288.142 8.5 291.5 11.8579 291.5 16V192C291.5 196.142 288.142 199.5 284 199.5H8C3.85787 199.5 0.5 196.142 0.5 192V16C0.5 11.8579 3.85786 8.5 8 8.5Z" stroke="white" stroke-opacity="0.1"/>
<defs>
<filter id="filter0_bdd_4_180" x="38.6426" y="9.48315" width="122.713" height="133.034" filterUnits="userSpaceOnUse" color-interpolation-filters="sRGB">
<feFlood flood-opacity="0" result="BackgroundImageFix"/>
<feGaussianBlur in="BackgroundImage" stdDeviation="4"/>
<feComposite in2="SourceAlpha" operator="in" result="effect1_backgroundBlur_4_180"/>
<feColorMatrix in="SourceAlpha" type="matrix" values="0 0 0 0 0 0 0 0 0 0 0 0 0 0 0 0 0 0 127 0" result="hardAlpha"/>
<feOffset dy="16"/>
<feGaussianBlur stdDeviation="12"/>
<feComposite in2="hardAlpha" operator="out"/>
<feColorMatrix type="matrix" values="0 0 0 0 0.123854 0 0 0 0 0.24795 0 0 0 0 0.3625 0 0 0 0.25 0"/>
<feBlend mode="normal" in2="effect1_backgroundBlur_4_180" result="effect2_dropShadow_4_180"/>
<feColorMatrix in="SourceAlpha" type="matrix" values="0 0 0 0 0 0 0 0 0 0 0 0 0 0 0 0 0 0 127 0" result="hardAlpha"/>
<feOffset dy="16"/>
<feGaussianBlur stdDeviation="4"/>
<feComposite in2="hardAlpha" operator="out"/>
<feColorMatrix type="matrix" values="0 0 0 0 0.101961 0 0 0 0 0.184314 0 0 0 0 0.262745 0 0 0 0.03 0"/>
<feBlend mode="normal" in2="effect2_dropShadow_4_180" result="effect3_dropShadow_4_180"/>
<feBlend mode="normal" in="SourceGraphic" in2="effect3_dropShadow_4_180" result="shape"/>
</filter>
<linearGradient id="paint0_linear_4_180" x1="99.9991" y1="16.8644" x2="99.9991" y2="103.136" gradientUnits="userSpaceOnUse">
<stop stop-color="#FF0CBB"/>
<stop offset="1" stop-color="#0047FF"/>
</linearGradient>
</defs>
</svg>
