<svg width="292" height="200" viewBox="0 0 292 200" fill="none" xmlns="http://www.w3.org/2000/svg">
<path d="M0 16C0 11.5817 3.58172 8 8 8H284C288.418 8 292 11.5817 292 16V192C292 196.418 288.418 200 284 200H8C3.58173 200 0 196.418 0 192V16Z" fill="#F8FBFD"/>
<circle cx="68" cy="76" r="60" fill="#00D4FF"/>
<g filter="url(#filter0_bdd_4_171)">
<path fill-rule="evenodd" clip-rule="evenodd" d="M100 92C117.673 92 132 77.6731 132 60C132 42.3269 117.673 28 100 28C82.3269 28 68 42.3269 68 60C68 77.6731 82.3269 92 100 92ZM100 102C123.196 102 142 83.196 142 60C142 36.804 123.196 18 100 18C76.804 18 58 36.804 58 60C58 83.196 76.804 102 100 102ZM90.4329 36.903C95.0011 35.0108 100.028 34.5157 104.877 35.4804C109.727 36.445 114.181 38.826 117.678 42.3223C121.174 45.8186 123.555 50.2732 124.52 55.1227C125.484 59.9723 124.989 64.9989 123.097 69.5671C121.205 74.1352 118 78.0397 113.889 80.7867C109.778 83.5338 104.945 85 100 85C97.2386 85 95 82.7614 95 80C95 77.2386 97.2386 75 100 75C102.967 75 105.867 74.1203 108.334 72.472C110.8 70.8238 112.723 68.4811 113.858 65.7402C114.994 62.9994 115.291 59.9834 114.712 57.0736C114.133 54.1639 112.704 51.4912 110.607 49.3934C108.509 47.2956 105.836 45.867 102.926 45.2882C100.017 44.7094 97.0006 45.0065 94.2598 46.1418C91.5189 47.2771 89.1762 49.1997 87.528 51.6664C85.8797 54.1332 85 57.0333 85 60C85 62.7614 82.7614 65 80 65C77.2386 65 75 62.7614 75 60C75 55.0555 76.4662 50.222 79.2133 46.1107C81.9603 41.9995 85.8648 38.7952 90.4329 36.903ZM86.6055 78C89.3669 78 91.6055 75.7614 91.6055 73C91.6055 70.2386 89.3669 68 86.6055 68C83.844 68 81.6055 70.2386 81.6055 73C81.6055 75.7614 83.844 78 86.6055 78Z" fill="url(#paint0_radial_4_171)"/>
</g>
<path d="M26.12 161.06V162.54H22.32V175H20.5V162.54H16.68V161.06H26.12ZM33.1403 175.18C32.1136 175.18 31.1803 174.947 30.3403 174.48C29.5136 174.013 28.8603 173.353 28.3803 172.5C27.9136 171.633 27.6803 170.633 27.6803 169.5C27.6803 168.38 27.9203 167.393 28.4003 166.54C28.8936 165.673 29.5603 165.013 30.4003 164.56C31.2403 164.093 32.1803 163.86 33.2203 163.86C34.2603 163.86 35.2003 164.093 36.0403 164.56C36.8803 165.013 37.5403 165.667 38.0203 166.52C38.5136 167.373 38.7603 168.367 38.7603 169.5C38.7603 170.633 38.507 171.633 38.0003 172.5C37.507 173.353 36.8336 174.013 35.9803 174.48C35.127 174.947 34.1803 175.18 33.1403 175.18ZM33.1403 173.58C33.7936 173.58 34.407 173.427 34.9803 173.12C35.5536 172.813 36.0136 172.353 36.3603 171.74C36.7203 171.127 36.9003 170.38 36.9003 169.5C36.9003 168.62 36.727 167.873 36.3803 167.26C36.0336 166.647 35.5803 166.193 35.0203 165.9C34.4603 165.593 33.8536 165.44 33.2003 165.44C32.5336 165.44 31.9203 165.593 31.3603 165.9C30.8136 166.193 30.3736 166.647 30.0403 167.26C29.707 167.873 29.5403 168.62 29.5403 169.5C29.5403 170.393 29.7003 171.147 30.0203 171.76C30.3536 172.373 30.7936 172.833 31.3403 173.14C31.887 173.433 32.487 173.58 33.1403 173.58ZM47.2733 175L42.9733 170.16V175H41.1533V160.2H42.9733V168.9L47.1933 164.04H49.7333L44.5733 169.5L49.7533 175H47.2733ZM61.4463 169.1C61.4463 169.447 61.4263 169.813 61.3863 170.2H52.6263C52.6929 171.28 53.0596 172.127 53.7263 172.74C54.4063 173.34 55.2263 173.64 56.1863 173.64C56.9729 173.64 57.6263 173.46 58.1463 173.1C58.6796 172.727 59.0529 172.233 59.2663 171.62H61.2263C60.9329 172.673 60.3463 173.533 59.4663 174.2C58.5863 174.853 57.4929 175.18 56.1863 175.18C55.1463 175.18 54.2129 174.947 53.3863 174.48C52.5729 174.013 51.9329 173.353 51.4663 172.5C50.9996 171.633 50.7663 170.633 50.7663 169.5C50.7663 168.367 50.9929 167.373 51.4463 166.52C51.8996 165.667 52.5329 165.013 53.3463 164.56C54.1729 164.093 55.1196 163.86 56.1863 163.86C57.2263 163.86 58.1463 164.087 58.9463 164.54C59.7463 164.993 60.3596 165.62 60.7863 166.42C61.2263 167.207 61.4463 168.1 61.4463 169.1ZM59.5663 168.72C59.5663 168.027 59.4129 167.433 59.1063 166.94C58.7996 166.433 58.3796 166.053 57.8463 165.8C57.3263 165.533 56.7463 165.4 56.1063 165.4C55.1863 165.4 54.3996 165.693 53.7463 166.28C53.1063 166.867 52.7396 167.68 52.6463 168.72H59.5663ZM69.1886 163.84C70.5219 163.84 71.6019 164.247 72.4286 165.06C73.2553 165.86 73.6686 167.02 73.6686 168.54V175H71.8686V168.8C71.8686 167.707 71.5953 166.873 71.0486 166.3C70.5019 165.713 69.7553 165.42 68.8086 165.42C67.8486 165.42 67.0819 165.72 66.5086 166.32C65.9486 166.92 65.6686 167.793 65.6686 168.94V175H63.8486V164.04H65.6686V165.6C66.0286 165.04 66.5153 164.607 67.1286 164.3C67.7553 163.993 68.4419 163.84 69.1886 163.84ZM80.5216 175.18C79.6816 175.18 78.9282 175.04 78.2616 174.76C77.5949 174.467 77.0682 174.067 76.6816 173.56C76.2949 173.04 76.0816 172.447 76.0416 171.78H77.9216C77.9749 172.327 78.2282 172.773 78.6816 173.12C79.1482 173.467 79.7549 173.64 80.5016 173.64C81.1949 173.64 81.7416 173.487 82.1416 173.18C82.5416 172.873 82.7416 172.487 82.7416 172.02C82.7416 171.54 82.5282 171.187 82.1016 170.96C81.6749 170.72 81.0149 170.487 80.1216 170.26C79.3082 170.047 78.6416 169.833 78.1216 169.62C77.6149 169.393 77.1749 169.067 76.8016 168.64C76.4416 168.2 76.2616 167.627 76.2616 166.92C76.2616 166.36 76.4282 165.847 76.7616 165.38C77.0949 164.913 77.5682 164.547 78.1816 164.28C78.7949 164 79.4949 163.86 80.2816 163.86C81.4949 163.86 82.4749 164.167 83.2216 164.78C83.9682 165.393 84.3682 166.233 84.4216 167.3H82.6016C82.5616 166.727 82.3282 166.267 81.9016 165.92C81.4882 165.573 80.9282 165.4 80.2216 165.4C79.5682 165.4 79.0482 165.54 78.6616 165.82C78.2749 166.1 78.0816 166.467 78.0816 166.92C78.0816 167.28 78.1949 167.58 78.4216 167.82C78.6616 168.047 78.9549 168.233 79.3016 168.38C79.6616 168.513 80.1549 168.667 80.7816 168.84C81.5682 169.053 82.2082 169.267 82.7016 169.48C83.1949 169.68 83.6149 169.987 83.9616 170.4C84.3216 170.813 84.5082 171.353 84.5216 172.02C84.5216 172.62 84.3549 173.16 84.0216 173.64C83.6882 174.12 83.2149 174.5 82.6016 174.78C82.0016 175.047 81.3082 175.18 80.5216 175.18Z" fill="#4F5A6A"/>
<defs>
<filter id="filter0_bdd_4_171" x="34" y="10" width="132" height="132" filterUnits="userSpaceOnUse" color-interpolation-filters="sRGB">
<feFlood flood-opacity="0" result="BackgroundImageFix"/>
<feGaussianBlur in="BackgroundImage" stdDeviation="4"/>
<feComposite in2="SourceAlpha" operator="in" result="effect1_backgroundBlur_4_171"/>
<feColorMatrix in="SourceAlpha" type="matrix" values="0 0 0 0 0 0 0 0 0 0 0 0 0 0 0 0 0 0 127 0" result="hardAlpha"/>
<feOffset dy="16"/>
<feGaussianBlur stdDeviation="12"/>
<feComposite in2="hardAlpha" operator="out"/>
<feColorMatrix type="matrix" values="0 0 0 0 0.123854 0 0 0 0 0.24795 0 0 0 0 0.3625 0 0 0 0.25 0"/>
<feBlend mode="normal" in2="effect1_backgroundBlur_4_171" result="effect2_dropShadow_4_171"/>
<feColorMatrix in="SourceAlpha" type="matrix" values="0 0 0 0 0 0 0 0 0 0 0 0 0 0 0 0 0 0 127 0" result="hardAlpha"/>
<feOffset dy="16"/>
<feGaussianBlur stdDeviation="4"/>
<feComposite in2="hardAlpha" operator="out"/>
<feColorMatrix type="matrix" values="0 0 0 0 0.101961 0 0 0 0 0.184314 0 0 0 0 0.262745 0 0 0 0.03 0"/>
<feBlend mode="normal" in2="effect2_dropShadow_4_171" result="effect3_dropShadow_4_171"/>
<feBlend mode="normal" in="SourceGraphic" in2="effect3_dropShadow_4_171" result="shape"/>
</filter>
<radialGradient id="paint0_radial_4_171" cx="0" cy="0" r="1" gradientUnits="userSpaceOnUse" gradientTransform="translate(100 102) rotate(-90) scale(84 181.797)">
<stop stop-color="#5200FF"/>
<stop offset="1" stop-color="#180660"/>
</radialGradient>
</defs>
</svg>
