<svg width="292" height="200" viewBox="0 0 292 200" fill="none" xmlns="http://www.w3.org/2000/svg">
<path d="M0 16C0 11.5817 3.58172 8 8 8H284C288.418 8 292 11.5817 292 16V192C292 196.418 288.418 200 284 200H8C3.58173 200 0 196.418 0 192V16Z" fill="#F8FBFD"/>
<circle cx="68" cy="76" r="60" fill="#00D4FF"/>
<g filter="url(#filter0_bdd_4_170)">
<path fill-rule="evenodd" clip-rule="evenodd" d="M96 21C96 20.4477 95.5523 20 95 20H61C60.4477 20 60 20.4477 60 21V55C60 55.5523 60.4477 56 61 56H95C95.5523 56 96 55.5523 96 55V21ZM104 38C104 28.0589 112.059 20 122 20C131.941 20 140 28.0589 140 38C140 47.9411 131.941 56 122 56C112.059 56 104 47.9411 104 38ZM105.411 64.6371C104.75 64.3383 104 64.8224 104 65.5485V98.3108C104 99.0709 104.815 99.5531 105.481 99.1875L138.243 81.2138C138.966 80.8171 138.925 79.7649 138.174 79.4256L105.411 64.6371Z" fill="url(#paint0_radial_4_170)"/>
<path fill-rule="evenodd" clip-rule="evenodd" d="M82.1055 68C82.1055 65.7909 80.3146 64 78.1055 64C75.8963 64 74.1055 65.7909 74.1055 68V77C74.1055 77.5523 73.6578 78 73.1055 78H64.1055C61.8963 78 60.1055 79.7909 60.1055 82C60.1055 84.2091 61.8963 86 64.1055 86H73.1055C73.6578 86 74.1055 86.4477 74.1055 87V96C74.1055 98.2091 75.8963 100 78.1055 100C80.3146 100 82.1055 98.2091 82.1055 96V87C82.1055 86.4477 82.5532 86 83.1055 86H92.1055C94.3146 86 96.1055 84.2091 96.1055 82C96.1055 79.7909 94.3146 78 92.1055 78H83.1055C82.5532 78 82.1055 77.5523 82.1055 77V68Z" fill="url(#paint1_radial_4_170)"/>
</g>
<path d="M31.68 161.16V175H29.86V164.68L25.26 175H23.98L19.36 164.66V175H17.54V161.16H19.5L24.62 172.6L29.74 161.16H31.68ZM34.0866 169.48C34.0866 168.36 34.3132 167.38 34.7666 166.54C35.2199 165.687 35.8399 165.027 36.6266 164.56C37.4266 164.093 38.3132 163.86 39.2866 163.86C40.2466 163.86 41.0799 164.067 41.7866 164.48C42.4932 164.893 43.0199 165.413 43.3666 166.04V164.04H45.2066V175H43.3666V172.96C43.0066 173.6 42.4666 174.133 41.7466 174.56C41.0399 174.973 40.2132 175.18 39.2666 175.18C38.2932 175.18 37.4132 174.94 36.6266 174.46C35.8399 173.98 35.2199 173.307 34.7666 172.44C34.3132 171.573 34.0866 170.587 34.0866 169.48ZM43.3666 169.5C43.3666 168.673 43.1999 167.953 42.8666 167.34C42.5332 166.727 42.0799 166.26 41.5066 165.94C40.9466 165.607 40.3266 165.44 39.6466 165.44C38.9666 165.44 38.3466 165.6 37.7866 165.92C37.2266 166.24 36.7799 166.707 36.4466 167.32C36.1132 167.933 35.9466 168.653 35.9466 169.48C35.9466 170.32 36.1132 171.053 36.4466 171.68C36.7799 172.293 37.2266 172.767 37.7866 173.1C38.3466 173.42 38.9666 173.58 39.6466 173.58C40.3266 173.58 40.9466 173.42 41.5066 173.1C42.0799 172.767 42.5332 172.293 42.8666 171.68C43.1999 171.053 43.3666 170.327 43.3666 169.5ZM50.1022 165.82C50.4222 165.193 50.8755 164.707 51.4622 164.36C52.0622 164.013 52.7889 163.84 53.6422 163.84V165.72H53.1622C51.1222 165.72 50.1022 166.827 50.1022 169.04V175H48.2822V164.04H50.1022V165.82ZM61.8631 175L57.5631 170.16V175H55.7431V160.2H57.5631V168.9L61.7831 164.04H64.3231L59.1631 169.5L64.3431 175H61.8631ZM76.0361 169.1C76.0361 169.447 76.0161 169.813 75.9761 170.2H67.2161C67.2828 171.28 67.6494 172.127 68.3161 172.74C68.9961 173.34 69.8161 173.64 70.7761 173.64C71.5628 173.64 72.2161 173.46 72.7361 173.1C73.2694 172.727 73.6428 172.233 73.8561 171.62H75.8161C75.5228 172.673 74.9361 173.533 74.0561 174.2C73.1761 174.853 72.0828 175.18 70.7761 175.18C69.7361 175.18 68.8028 174.947 67.9761 174.48C67.1628 174.013 66.5228 173.353 66.0561 172.5C65.5894 171.633 65.3561 170.633 65.3561 169.5C65.3561 168.367 65.5828 167.373 66.0361 166.52C66.4894 165.667 67.1228 165.013 67.9361 164.56C68.7628 164.093 69.7094 163.86 70.7761 163.86C71.8161 163.86 72.7361 164.087 73.5361 164.54C74.3361 164.993 74.9494 165.62 75.3761 166.42C75.8161 167.207 76.0361 168.1 76.0361 169.1ZM74.1561 168.72C74.1561 168.027 74.0028 167.433 73.6961 166.94C73.3894 166.433 72.9694 166.053 72.4361 165.8C71.9161 165.533 71.3361 165.4 70.6961 165.4C69.7761 165.4 68.9894 165.693 68.3361 166.28C67.6961 166.867 67.3294 167.68 67.2361 168.72H74.1561ZM80.6584 165.54V172C80.6584 172.533 80.7718 172.913 80.9984 173.14C81.2251 173.353 81.6184 173.46 82.1784 173.46H83.5184V175H81.8784C80.8651 175 80.1051 174.767 79.5984 174.3C79.0918 173.833 78.8384 173.067 78.8384 172V165.54H77.4184V164.04H78.8384V161.28H80.6584V164.04H83.5184V165.54H80.6584ZM87.5436 166.06C87.9036 165.433 88.4369 164.913 89.1436 164.5C89.8636 164.073 90.6969 163.86 91.6436 163.86C92.6169 163.86 93.4969 164.093 94.2836 164.56C95.0836 165.027 95.7103 165.687 96.1636 166.54C96.6169 167.38 96.8436 168.36 96.8436 169.48C96.8436 170.587 96.6169 171.573 96.1636 172.44C95.7103 173.307 95.0836 173.98 94.2836 174.46C93.4969 174.94 92.6169 175.18 91.6436 175.18C90.7103 175.18 89.8836 174.973 89.1636 174.56C88.4569 174.133 87.9169 173.607 87.5436 172.98V180.2H85.7236V164.04H87.5436V166.06ZM94.9836 169.48C94.9836 168.653 94.8169 167.933 94.4836 167.32C94.1503 166.707 93.6969 166.24 93.1236 165.92C92.5636 165.6 91.9436 165.44 91.2636 165.44C90.5969 165.44 89.9769 165.607 89.4036 165.94C88.8436 166.26 88.3903 166.733 88.0436 167.36C87.7103 167.973 87.5436 168.687 87.5436 169.5C87.5436 170.327 87.7103 171.053 88.0436 171.68C88.3903 172.293 88.8436 172.767 89.4036 173.1C89.9769 173.42 90.5969 173.58 91.2636 173.58C91.9436 173.58 92.5636 173.42 93.1236 173.1C93.6969 172.767 94.1503 172.293 94.4836 171.68C94.8169 171.053 94.9836 170.32 94.9836 169.48ZM101.059 160.2V175H99.2392V160.2H101.059ZM103.481 169.48C103.481 168.36 103.708 167.38 104.161 166.54C104.614 165.687 105.234 165.027 106.021 164.56C106.821 164.093 107.708 163.86 108.681 163.86C109.641 163.86 110.474 164.067 111.181 164.48C111.888 164.893 112.414 165.413 112.761 166.04V164.04H114.601V175H112.761V172.96C112.401 173.6 111.861 174.133 111.141 174.56C110.434 174.973 109.608 175.18 108.661 175.18C107.688 175.18 106.808 174.94 106.021 174.46C105.234 173.98 104.614 173.307 104.161 172.44C103.708 171.573 103.481 170.587 103.481 169.48ZM112.761 169.5C112.761 168.673 112.594 167.953 112.261 167.34C111.928 166.727 111.474 166.26 110.901 165.94C110.341 165.607 109.721 165.44 109.041 165.44C108.361 165.44 107.741 165.6 107.181 165.92C106.621 166.24 106.174 166.707 105.841 167.32C105.508 167.933 105.341 168.653 105.341 169.48C105.341 170.32 105.508 171.053 105.841 171.68C106.174 172.293 106.621 172.767 107.181 173.1C107.741 173.42 108.361 173.58 109.041 173.58C109.721 173.58 110.341 173.42 110.901 173.1C111.474 172.767 111.928 172.293 112.261 171.68C112.594 171.053 112.761 170.327 112.761 169.5ZM116.997 169.5C116.997 168.367 117.223 167.38 117.677 166.54C118.13 165.687 118.757 165.027 119.557 164.56C120.37 164.093 121.297 163.86 122.337 163.86C123.683 163.86 124.79 164.187 125.657 164.84C126.537 165.493 127.117 166.4 127.397 167.56H125.437C125.25 166.893 124.883 166.367 124.337 165.98C123.803 165.593 123.137 165.4 122.337 165.4C121.297 165.4 120.457 165.76 119.817 166.48C119.177 167.187 118.857 168.193 118.857 169.5C118.857 170.82 119.177 171.84 119.817 172.56C120.457 173.28 121.297 173.64 122.337 173.64C123.137 173.64 123.803 173.453 124.337 173.08C124.87 172.707 125.237 172.173 125.437 171.48H127.397C127.103 172.6 126.517 173.5 125.637 174.18C124.757 174.847 123.657 175.18 122.337 175.18C121.297 175.18 120.37 174.947 119.557 174.48C118.757 174.013 118.13 173.353 117.677 172.5C117.223 171.647 116.997 170.647 116.997 169.5ZM139.825 169.1C139.825 169.447 139.805 169.813 139.765 170.2H131.005C131.072 171.28 131.438 172.127 132.105 172.74C132.785 173.34 133.605 173.64 134.565 173.64C135.352 173.64 136.005 173.46 136.525 173.1C137.058 172.727 137.432 172.233 137.645 171.62H139.605C139.312 172.673 138.725 173.533 137.845 174.2C136.965 174.853 135.872 175.18 134.565 175.18C133.525 175.18 132.592 174.947 131.765 174.48C130.952 174.013 130.312 173.353 129.845 172.5C129.378 171.633 129.145 170.633 129.145 169.5C129.145 168.367 129.372 167.373 129.825 166.52C130.278 165.667 130.912 165.013 131.725 164.56C132.552 164.093 133.498 163.86 134.565 163.86C135.605 163.86 136.525 164.087 137.325 164.54C138.125 164.993 138.738 165.62 139.165 166.42C139.605 167.207 139.825 168.1 139.825 169.1ZM137.945 168.72C137.945 168.027 137.792 167.433 137.485 166.94C137.178 166.433 136.758 166.053 136.225 165.8C135.705 165.533 135.125 165.4 134.485 165.4C133.565 165.4 132.778 165.693 132.125 166.28C131.485 166.867 131.118 167.68 131.025 168.72H137.945ZM146.108 175.18C145.268 175.18 144.514 175.04 143.848 174.76C143.181 174.467 142.654 174.067 142.268 173.56C141.881 173.04 141.668 172.447 141.628 171.78H143.508C143.561 172.327 143.814 172.773 144.268 173.12C144.734 173.467 145.341 173.64 146.088 173.64C146.781 173.64 147.328 173.487 147.728 173.18C148.128 172.873 148.328 172.487 148.328 172.02C148.328 171.54 148.114 171.187 147.688 170.96C147.261 170.72 146.601 170.487 145.708 170.26C144.894 170.047 144.228 169.833 143.708 169.62C143.201 169.393 142.761 169.067 142.388 168.64C142.028 168.2 141.848 167.627 141.848 166.92C141.848 166.36 142.014 165.847 142.348 165.38C142.681 164.913 143.154 164.547 143.768 164.28C144.381 164 145.081 163.86 145.868 163.86C147.081 163.86 148.061 164.167 148.808 164.78C149.554 165.393 149.954 166.233 150.008 167.3H148.188C148.148 166.727 147.914 166.267 147.488 165.92C147.074 165.573 146.514 165.4 145.808 165.4C145.154 165.4 144.634 165.54 144.248 165.82C143.861 166.1 143.668 166.467 143.668 166.92C143.668 167.28 143.781 167.58 144.008 167.82C144.248 168.047 144.541 168.233 144.888 168.38C145.248 168.513 145.741 168.667 146.368 168.84C147.154 169.053 147.794 169.267 148.288 169.48C148.781 169.68 149.201 169.987 149.548 170.4C149.908 170.813 150.094 171.353 150.108 172.02C150.108 172.62 149.941 173.16 149.608 173.64C149.274 174.12 148.801 174.5 148.188 174.78C147.588 175.047 146.894 175.18 146.108 175.18Z" fill="#4F5A6A"/>
<defs>
<filter id="filter0_bdd_4_170" x="36" y="12" width="128" height="128" filterUnits="userSpaceOnUse" color-interpolation-filters="sRGB">
<feFlood flood-opacity="0" result="BackgroundImageFix"/>
<feGaussianBlur in="BackgroundImage" stdDeviation="4"/>
<feComposite in2="SourceAlpha" operator="in" result="effect1_backgroundBlur_4_170"/>
<feColorMatrix in="SourceAlpha" type="matrix" values="0 0 0 0 0 0 0 0 0 0 0 0 0 0 0 0 0 0 127 0" result="hardAlpha"/>
<feOffset dy="16"/>
<feGaussianBlur stdDeviation="12"/>
<feComposite in2="hardAlpha" operator="out"/>
<feColorMatrix type="matrix" values="0 0 0 0 0.123854 0 0 0 0 0.24795 0 0 0 0 0.3625 0 0 0 0.25 0"/>
<feBlend mode="normal" in2="effect1_backgroundBlur_4_170" result="effect2_dropShadow_4_170"/>
<feColorMatrix in="SourceAlpha" type="matrix" values="0 0 0 0 0 0 0 0 0 0 0 0 0 0 0 0 0 0 127 0" result="hardAlpha"/>
<feOffset dy="16"/>
<feGaussianBlur stdDeviation="4"/>
<feComposite in2="hardAlpha" operator="out"/>
<feColorMatrix type="matrix" values="0 0 0 0 0.101961 0 0 0 0 0.184314 0 0 0 0 0.262745 0 0 0 0.03 0"/>
<feBlend mode="normal" in2="effect2_dropShadow_4_170" result="effect3_dropShadow_4_170"/>
<feBlend mode="normal" in="SourceGraphic" in2="effect3_dropShadow_4_170" result="shape"/>
</filter>
<radialGradient id="paint0_radial_4_170" cx="0" cy="0" r="1" gradientUnits="userSpaceOnUse" gradientTransform="translate(100 100) rotate(-90) scale(80 173.14)">
<stop stop-color="#5200FF"/>
<stop offset="1" stop-color="#180660"/>
</radialGradient>
<radialGradient id="paint1_radial_4_170" cx="0" cy="0" r="1" gradientUnits="userSpaceOnUse" gradientTransform="translate(100 100) rotate(-90) scale(80 173.14)">
<stop stop-color="#5200FF"/>
<stop offset="1" stop-color="#180660"/>
</radialGradient>
</defs>
</svg>
