<svg width="292" height="198" viewBox="0 0 292 198" fill="none" xmlns="http://www.w3.org/2000/svg">
<path d="M0 16C0 11.5817 3.58172 8 8 8H284C288.418 8 292 11.5817 292 16V190C292 194.418 288.418 198 284 198H8C3.58173 198 0 194.418 0 190V16Z" fill="#F8FBFD"/>
<circle cx="68" cy="76" r="60" fill="#00D4FF"/>
<g filter="url(#filter0_bdd_4_172)">
<path fill-rule="evenodd" clip-rule="evenodd" d="M108 20C108 24.4183 104.418 28 100 28C95.5817 28 92 24.4183 92 20C92 15.5817 95.5817 12 100 12C104.418 12 108 15.5817 108 20ZM72 42C72 46.4183 68.4183 50 64 50C59.5817 50 56 46.4183 56 42C56 37.5817 59.5817 34 64 34C68.4183 34 72 37.5817 72 42ZM72 78C72 82.4183 68.4183 86 64 86C59.5817 86 56 82.4183 56 78C56 73.5817 59.5817 70 64 70C68.4183 70 72 73.5817 72 78ZM100 107.75C104.418 107.75 108 104.168 108 99.75C108 95.3317 104.418 91.75 100 91.75C95.5817 91.75 92 95.3317 92 99.75C92 104.168 95.5817 107.75 100 107.75ZM136 50C140.418 50 144 46.4183 144 42C144 37.5817 140.418 34 136 34C131.582 34 128 37.5817 128 42C128 46.4183 131.582 50 136 50ZM144 78C144 82.4183 140.418 86 136 86C131.582 86 128 82.4183 128 78C128 73.5817 131.582 70 136 70C140.418 70 144 73.5817 144 78ZM124.249 46L100 32L75.7513 46V74L100 88L124.249 74V46Z" fill="url(#paint0_radial_4_172)"/>
</g>
<path d="M21.88 160.06C23.4 160.06 24.7133 160.347 25.82 160.92C26.94 161.48 27.7933 162.287 28.38 163.34C28.98 164.393 29.28 165.633 29.28 167.06C29.28 168.487 28.98 169.727 28.38 170.78C27.7933 171.82 26.94 172.62 25.82 173.18C24.7133 173.727 23.4 174 21.88 174H17.54V160.06H21.88ZM21.88 172.5C23.68 172.5 25.0533 172.027 26 171.08C26.9467 170.12 27.42 168.78 27.42 167.06C27.42 165.327 26.94 163.973 25.98 163C25.0333 162.027 23.6667 161.54 21.88 161.54H19.36V172.5H21.88ZM39.9206 170.9H33.8406L32.7206 174H30.8006L35.8406 160.14H37.9406L42.9606 174H41.0406L39.9206 170.9ZM39.4006 169.42L36.8806 162.38L34.3606 169.42H39.4006ZM51.4772 174.14C50.1839 174.14 49.0039 173.84 47.9372 173.24C46.8705 172.627 46.0239 171.78 45.3972 170.7C44.7839 169.607 44.4772 168.38 44.4772 167.02C44.4772 165.66 44.7839 164.44 45.3972 163.36C46.0239 162.267 46.8705 161.42 47.9372 160.82C49.0039 160.207 50.1839 159.9 51.4772 159.9C52.7839 159.9 53.9705 160.207 55.0372 160.82C56.1039 161.42 56.9439 162.26 57.5572 163.34C58.1705 164.42 58.4772 165.647 58.4772 167.02C58.4772 168.393 58.1705 169.62 57.5572 170.7C56.9439 171.78 56.1039 172.627 55.0372 173.24C53.9705 173.84 52.7839 174.14 51.4772 174.14ZM51.4772 172.56C52.4505 172.56 53.3239 172.333 54.0972 171.88C54.8839 171.427 55.4972 170.78 55.9372 169.94C56.3905 169.1 56.6172 168.127 56.6172 167.02C56.6172 165.9 56.3905 164.927 55.9372 164.1C55.4972 163.26 54.8905 162.613 54.1172 162.16C53.3439 161.707 52.4639 161.48 51.4772 161.48C50.4905 161.48 49.6105 161.707 48.8372 162.16C48.0639 162.613 47.4505 163.26 46.9972 164.1C46.5572 164.927 46.3372 165.9 46.3372 167.02C46.3372 168.127 46.5572 169.1 46.9972 169.94C47.4505 170.78 48.0639 171.427 48.8372 171.88C49.6239 172.333 50.5039 172.56 51.4772 172.56ZM68.4798 165.9V167.44H60.4998V165.9H68.4798ZM73.7155 165.06C74.0755 164.433 74.6088 163.913 75.3155 163.5C76.0355 163.073 76.8688 162.86 77.8155 162.86C78.7888 162.86 79.6688 163.093 80.4555 163.56C81.2555 164.027 81.8821 164.687 82.3355 165.54C82.7888 166.38 83.0155 167.36 83.0155 168.48C83.0155 169.587 82.7888 170.573 82.3355 171.44C81.8821 172.307 81.2555 172.98 80.4555 173.46C79.6688 173.94 78.7888 174.18 77.8155 174.18C76.8821 174.18 76.0555 173.973 75.3355 173.56C74.6288 173.133 74.0888 172.607 73.7155 171.98V179.2H71.8955V163.04H73.7155V165.06ZM81.1555 168.48C81.1555 167.653 80.9888 166.933 80.6555 166.32C80.3221 165.707 79.8688 165.24 79.2955 164.92C78.7355 164.6 78.1155 164.44 77.4355 164.44C76.7688 164.44 76.1488 164.607 75.5755 164.94C75.0155 165.26 74.5621 165.733 74.2155 166.36C73.8821 166.973 73.7155 167.687 73.7155 168.5C73.7155 169.327 73.8821 170.053 74.2155 170.68C74.5621 171.293 75.0155 171.767 75.5755 172.1C76.1488 172.42 76.7688 172.58 77.4355 172.58C78.1155 172.58 78.7355 172.42 79.2955 172.1C79.8688 171.767 80.3221 171.293 80.6555 170.68C80.9888 170.053 81.1555 169.32 81.1555 168.48ZM87.2311 159.2V174H85.4111V159.2H87.2311ZM89.653 168.48C89.653 167.36 89.8796 166.38 90.333 165.54C90.7863 164.687 91.4063 164.027 92.193 163.56C92.993 163.093 93.8796 162.86 94.853 162.86C95.813 162.86 96.6463 163.067 97.353 163.48C98.0596 163.893 98.5863 164.413 98.933 165.04V163.04H100.773V174H98.933V171.96C98.573 172.6 98.033 173.133 97.313 173.56C96.6063 173.973 95.7796 174.18 94.833 174.18C93.8596 174.18 92.9796 173.94 92.193 173.46C91.4063 172.98 90.7863 172.307 90.333 171.44C89.8796 170.573 89.653 169.587 89.653 168.48ZM98.933 168.5C98.933 167.673 98.7663 166.953 98.433 166.34C98.0996 165.727 97.6463 165.26 97.073 164.94C96.513 164.607 95.893 164.44 95.213 164.44C94.533 164.44 93.913 164.6 93.353 164.92C92.793 165.24 92.3463 165.707 92.013 166.32C91.6796 166.933 91.513 167.653 91.513 168.48C91.513 169.32 91.6796 170.053 92.013 170.68C92.3463 171.293 92.793 171.767 93.353 172.1C93.913 172.42 94.533 172.58 95.213 172.58C95.893 172.58 96.513 172.42 97.073 172.1C97.6463 171.767 98.0996 171.293 98.433 170.68C98.7663 170.053 98.933 169.327 98.933 168.5ZM106.069 164.54V171C106.069 171.533 106.182 171.913 106.409 172.14C106.635 172.353 107.029 172.46 107.589 172.46H108.929V174H107.289C106.275 174 105.515 173.767 105.009 173.3C104.502 172.833 104.249 172.067 104.249 171V164.54H102.829V163.04H104.249V160.28H106.069V163.04H108.929V164.54H106.069ZM115.594 164.54H113.294V174H111.474V164.54H110.054V163.04H111.474V162.26C111.474 161.033 111.787 160.14 112.414 159.58C113.054 159.007 114.074 158.72 115.474 158.72V160.24C114.674 160.24 114.107 160.4 113.774 160.72C113.454 161.027 113.294 161.54 113.294 162.26V163.04H115.594V164.54ZM122.496 174.18C121.469 174.18 120.536 173.947 119.696 173.48C118.869 173.013 118.216 172.353 117.736 171.5C117.269 170.633 117.036 169.633 117.036 168.5C117.036 167.38 117.276 166.393 117.756 165.54C118.249 164.673 118.916 164.013 119.756 163.56C120.596 163.093 121.536 162.86 122.576 162.86C123.616 162.86 124.556 163.093 125.396 163.56C126.236 164.013 126.896 164.667 127.376 165.52C127.869 166.373 128.116 167.367 128.116 168.5C128.116 169.633 127.862 170.633 127.356 171.5C126.862 172.353 126.189 173.013 125.336 173.48C124.482 173.947 123.536 174.18 122.496 174.18ZM122.496 172.58C123.149 172.58 123.762 172.427 124.336 172.12C124.909 171.813 125.369 171.353 125.716 170.74C126.076 170.127 126.256 169.38 126.256 168.5C126.256 167.62 126.082 166.873 125.736 166.26C125.389 165.647 124.936 165.193 124.376 164.9C123.816 164.593 123.209 164.44 122.556 164.44C121.889 164.44 121.276 164.593 120.716 164.9C120.169 165.193 119.729 165.647 119.396 166.26C119.062 166.873 118.896 167.62 118.896 168.5C118.896 169.393 119.056 170.147 119.376 170.76C119.709 171.373 120.149 171.833 120.696 172.14C121.242 172.433 121.842 172.58 122.496 172.58ZM132.329 164.82C132.649 164.193 133.102 163.707 133.689 163.36C134.289 163.013 135.015 162.84 135.869 162.84V164.72H135.389C133.349 164.72 132.329 165.827 132.329 168.04V174H130.509V163.04H132.329V164.82ZM151.15 162.84C152.003 162.84 152.763 163.02 153.43 163.38C154.096 163.727 154.623 164.253 155.01 164.96C155.396 165.667 155.59 166.527 155.59 167.54V174H153.79V167.8C153.79 166.707 153.516 165.873 152.97 165.3C152.436 164.713 151.71 164.42 150.79 164.42C149.843 164.42 149.09 164.727 148.53 165.34C147.97 165.94 147.69 166.813 147.69 167.96V174H145.89V167.8C145.89 166.707 145.616 165.873 145.07 165.3C144.536 164.713 143.81 164.42 142.89 164.42C141.943 164.42 141.19 164.727 140.63 165.34C140.07 165.94 139.79 166.813 139.79 167.96V174H137.97V163.04H139.79V164.62C140.15 164.047 140.63 163.607 141.23 163.3C141.843 162.993 142.516 162.84 143.25 162.84C144.17 162.84 144.983 163.047 145.69 163.46C146.396 163.873 146.923 164.48 147.27 165.28C147.576 164.507 148.083 163.907 148.79 163.48C149.496 163.053 150.283 162.84 151.15 162.84ZM162.455 174.18C161.615 174.18 160.862 174.04 160.195 173.76C159.528 173.467 159.002 173.067 158.615 172.56C158.228 172.04 158.015 171.447 157.975 170.78H159.855C159.908 171.327 160.162 171.773 160.615 172.12C161.082 172.467 161.688 172.64 162.435 172.64C163.128 172.64 163.675 172.487 164.075 172.18C164.475 171.873 164.675 171.487 164.675 171.02C164.675 170.54 164.462 170.187 164.035 169.96C163.608 169.72 162.948 169.487 162.055 169.26C161.242 169.047 160.575 168.833 160.055 168.62C159.548 168.393 159.108 168.067 158.735 167.64C158.375 167.2 158.195 166.627 158.195 165.92C158.195 165.36 158.362 164.847 158.695 164.38C159.028 163.913 159.502 163.547 160.115 163.28C160.728 163 161.428 162.86 162.215 162.86C163.428 162.86 164.408 163.167 165.155 163.78C165.902 164.393 166.302 165.233 166.355 166.3H164.535C164.495 165.727 164.262 165.267 163.835 164.92C163.422 164.573 162.862 164.4 162.155 164.4C161.502 164.4 160.982 164.54 160.595 164.82C160.208 165.1 160.015 165.467 160.015 165.92C160.015 166.28 160.128 166.58 160.355 166.82C160.595 167.047 160.888 167.233 161.235 167.38C161.595 167.513 162.088 167.667 162.715 167.84C163.502 168.053 164.142 168.267 164.635 168.48C165.128 168.68 165.548 168.987 165.895 169.4C166.255 169.813 166.442 170.353 166.455 171.02C166.455 171.62 166.288 172.16 165.955 172.64C165.622 173.12 165.148 173.5 164.535 173.78C163.935 174.047 163.242 174.18 162.455 174.18Z" fill="#4F5A6A"/>
<defs>
<filter id="filter0_bdd_4_172" x="32" y="4" width="136" height="143.75" filterUnits="userSpaceOnUse" color-interpolation-filters="sRGB">
<feFlood flood-opacity="0" result="BackgroundImageFix"/>
<feGaussianBlur in="BackgroundImage" stdDeviation="4"/>
<feComposite in2="SourceAlpha" operator="in" result="effect1_backgroundBlur_4_172"/>
<feColorMatrix in="SourceAlpha" type="matrix" values="0 0 0 0 0 0 0 0 0 0 0 0 0 0 0 0 0 0 127 0" result="hardAlpha"/>
<feOffset dy="16"/>
<feGaussianBlur stdDeviation="12"/>
<feComposite in2="hardAlpha" operator="out"/>
<feColorMatrix type="matrix" values="0 0 0 0 0.123854 0 0 0 0 0.24795 0 0 0 0 0.3625 0 0 0 0.25 0"/>
<feBlend mode="normal" in2="effect1_backgroundBlur_4_172" result="effect2_dropShadow_4_172"/>
<feColorMatrix in="SourceAlpha" type="matrix" values="0 0 0 0 0 0 0 0 0 0 0 0 0 0 0 0 0 0 127 0" result="hardAlpha"/>
<feOffset dy="16"/>
<feGaussianBlur stdDeviation="4"/>
<feComposite in2="hardAlpha" operator="out"/>
<feColorMatrix type="matrix" values="0 0 0 0 0.101961 0 0 0 0 0.184314 0 0 0 0 0.262745 0 0 0 0.03 0"/>
<feBlend mode="normal" in2="effect2_dropShadow_4_172" result="effect3_dropShadow_4_172"/>
<feBlend mode="normal" in="SourceGraphic" in2="effect3_dropShadow_4_172" result="shape"/>
</filter>
<radialGradient id="paint0_radial_4_172" cx="0" cy="0" r="1" gradientUnits="userSpaceOnUse" gradientTransform="translate(100 107.75) rotate(-90) scale(95.75 190.454)">
<stop stop-color="#5200FF"/>
<stop offset="1" stop-color="#180660"/>
</radialGradient>
</defs>
</svg>
