<svg width="292" height="200" viewBox="0 0 292 200" fill="none" xmlns="http://www.w3.org/2000/svg">
<path d="M0 16C0 11.5817 3.58172 8 8 8H284C288.418 8 292 11.5817 292 16V192C292 196.418 288.418 200 284 200H8C3.58173 200 0 196.418 0 192V16Z" fill="#F8FBFD"/>
<circle cx="68" cy="76" r="60" fill="#00D4FF"/>
<g clip-path="url(#clip0_4_169)">
<g filter="url(#filter0_bdd_4_169)">
<path fill-rule="evenodd" clip-rule="evenodd" d="M140.037 50.0794C140.037 52.8409 137.798 55.0794 135.037 55.0794H134.927C134.881 55.0799 134.835 55.0799 134.79 55.0794H85.0371C82.2757 55.0794 80.0371 52.8409 80.0371 50.0794C80.0371 47.318 82.2757 45.0794 85.0371 45.0794H122.787L117.18 39.4733C115.228 37.5206 115.228 34.3548 117.18 32.4022C119.133 30.4496 122.299 30.4496 124.252 32.4022L137.69 45.8403C139.1 46.7244 140.037 48.2924 140.037 50.0794ZM59.9629 69.9204C59.9629 67.159 62.2015 64.9204 64.9629 64.9204H65.0733C65.1189 64.9199 65.1645 64.9199 65.2101 64.9204H114.963C117.724 64.9204 119.963 67.159 119.963 69.9204C119.963 72.6819 117.724 74.9204 114.963 74.9204H77.2133L82.8194 80.5265C84.772 82.479 84.772 85.645 82.8194 87.5975C80.8668 89.5504 77.7009 89.5504 75.7483 87.5975L62.3102 74.1594C60.9003 73.2754 59.9629 71.7075 59.9629 69.9204Z" fill="url(#paint0_radial_4_169)"/>
</g>
</g>
<path d="M19.36 162.54V167.2H24.44V168.7H19.36V173.5H25.04V175H17.54V161.04H25.04V162.54H19.36ZM33.5139 175L30.9139 170.92L28.4139 175H26.5139L30.0539 169.56L26.5139 164.04H28.5739L31.1739 168.1L33.6539 164.04H35.5539L32.0339 169.46L35.5739 175H33.5139ZM36.6842 169.5C36.6842 168.367 36.9109 167.38 37.3642 166.54C37.8176 165.687 38.4442 165.027 39.2442 164.56C40.0576 164.093 40.9842 163.86 42.0242 163.86C43.3709 163.86 44.4776 164.187 45.3442 164.84C46.2242 165.493 46.8042 166.4 47.0842 167.56H45.1242C44.9376 166.893 44.5709 166.367 44.0242 165.98C43.4909 165.593 42.8242 165.4 42.0242 165.4C40.9842 165.4 40.1442 165.76 39.5042 166.48C38.8642 167.187 38.5442 168.193 38.5442 169.5C38.5442 170.82 38.8642 171.84 39.5042 172.56C40.1442 173.28 40.9842 173.64 42.0242 173.64C42.8242 173.64 43.4909 173.453 44.0242 173.08C44.5576 172.707 44.9242 172.173 45.1242 171.48H47.0842C46.7909 172.6 46.2042 173.5 45.3242 174.18C44.4442 174.847 43.3442 175.18 42.0242 175.18C40.9842 175.18 40.0576 174.947 39.2442 174.48C38.4442 174.013 37.8176 173.353 37.3642 172.5C36.9109 171.647 36.6842 170.647 36.6842 169.5ZM54.9527 163.84C55.7793 163.84 56.526 164.02 57.1927 164.38C57.8593 164.727 58.3793 165.253 58.7527 165.96C59.1393 166.667 59.3327 167.527 59.3327 168.54V175H57.5327V168.8C57.5327 167.707 57.2593 166.873 56.7127 166.3C56.166 165.713 55.4193 165.42 54.4727 165.42C53.5127 165.42 52.746 165.72 52.1727 166.32C51.6127 166.92 51.3327 167.793 51.3327 168.94V175H49.5127V160.2H51.3327V165.6C51.6927 165.04 52.186 164.607 52.8127 164.3C53.4527 163.993 54.166 163.84 54.9527 163.84ZM61.6256 169.48C61.6256 168.36 61.8523 167.38 62.3056 166.54C62.759 165.687 63.379 165.027 64.1656 164.56C64.9656 164.093 65.8523 163.86 66.8256 163.86C67.7856 163.86 68.619 164.067 69.3256 164.48C70.0323 164.893 70.559 165.413 70.9056 166.04V164.04H72.7456V175H70.9056V172.96C70.5456 173.6 70.0056 174.133 69.2856 174.56C68.579 174.973 67.7523 175.18 66.8056 175.18C65.8323 175.18 64.9523 174.94 64.1656 174.46C63.379 173.98 62.759 173.307 62.3056 172.44C61.8523 171.573 61.6256 170.587 61.6256 169.48ZM70.9056 169.5C70.9056 168.673 70.739 167.953 70.4056 167.34C70.0723 166.727 69.619 166.26 69.0456 165.94C68.4856 165.607 67.8656 165.44 67.1856 165.44C66.5056 165.44 65.8856 165.6 65.3256 165.92C64.7656 166.24 64.319 166.707 63.9856 167.32C63.6523 167.933 63.4856 168.653 63.4856 169.48C63.4856 170.32 63.6523 171.053 63.9856 171.68C64.319 172.293 64.7656 172.767 65.3256 173.1C65.8856 173.42 66.5056 173.58 67.1856 173.58C67.8656 173.58 68.4856 173.42 69.0456 173.1C69.619 172.767 70.0723 172.293 70.4056 171.68C70.739 171.053 70.9056 170.327 70.9056 169.5ZM81.1613 163.84C82.4946 163.84 83.5746 164.247 84.4013 165.06C85.2279 165.86 85.6413 167.02 85.6413 168.54V175H83.8413V168.8C83.8413 167.707 83.5679 166.873 83.0213 166.3C82.4746 165.713 81.7279 165.42 80.7813 165.42C79.8213 165.42 79.0546 165.72 78.4813 166.32C77.9213 166.92 77.6413 167.793 77.6413 168.94V175H75.8213V164.04H77.6413V165.6C78.0013 165.04 78.4879 164.607 79.1013 164.3C79.7279 163.993 80.4146 163.84 81.1613 163.84ZM93.1342 163.86C94.0809 163.86 94.9076 164.067 95.6142 164.48C96.3342 164.893 96.8676 165.413 97.2142 166.04V164.04H99.0542V175.24C99.0542 176.24 98.8409 177.127 98.4142 177.9C97.9876 178.687 97.3742 179.3 96.5742 179.74C95.7876 180.18 94.8676 180.4 93.8142 180.4C92.3742 180.4 91.1742 180.06 90.2142 179.38C89.2542 178.7 88.6876 177.773 88.5142 176.6H90.3142C90.5142 177.267 90.9276 177.8 91.5542 178.2C92.1809 178.613 92.9342 178.82 93.8142 178.82C94.8142 178.82 95.6276 178.507 96.2542 177.88C96.8942 177.253 97.2142 176.373 97.2142 175.24V172.94C96.8542 173.58 96.3209 174.113 95.6142 174.54C94.9076 174.967 94.0809 175.18 93.1342 175.18C92.1609 175.18 91.2742 174.94 90.4742 174.46C89.6876 173.98 89.0676 173.307 88.6142 172.44C88.1609 171.573 87.9342 170.587 87.9342 169.48C87.9342 168.36 88.1609 167.38 88.6142 166.54C89.0676 165.687 89.6876 165.027 90.4742 164.56C91.2742 164.093 92.1609 163.86 93.1342 163.86ZM97.2142 169.5C97.2142 168.673 97.0476 167.953 96.7142 167.34C96.3809 166.727 95.9276 166.26 95.3542 165.94C94.7942 165.607 94.1742 165.44 93.4942 165.44C92.8142 165.44 92.1942 165.6 91.6342 165.92C91.0742 166.24 90.6276 166.707 90.2942 167.32C89.9609 167.933 89.7942 168.653 89.7942 169.48C89.7942 170.32 89.9609 171.053 90.2942 171.68C90.6276 172.293 91.0742 172.767 91.6342 173.1C92.1942 173.42 92.8142 173.58 93.4942 173.58C94.1742 173.58 94.7942 173.42 95.3542 173.1C95.9276 172.767 96.3809 172.293 96.7142 171.68C97.0476 171.053 97.2142 170.327 97.2142 169.5ZM112.13 169.1C112.13 169.447 112.11 169.813 112.07 170.2H103.31C103.377 171.28 103.743 172.127 104.41 172.74C105.09 173.34 105.91 173.64 106.87 173.64C107.657 173.64 108.31 173.46 108.83 173.1C109.363 172.727 109.737 172.233 109.95 171.62H111.91C111.617 172.673 111.03 173.533 110.15 174.2C109.27 174.853 108.177 175.18 106.87 175.18C105.83 175.18 104.897 174.947 104.07 174.48C103.257 174.013 102.617 173.353 102.15 172.5C101.683 171.633 101.45 170.633 101.45 169.5C101.45 168.367 101.677 167.373 102.13 166.52C102.583 165.667 103.217 165.013 104.03 164.56C104.857 164.093 105.803 163.86 106.87 163.86C107.91 163.86 108.83 164.087 109.63 164.54C110.43 164.993 111.043 165.62 111.47 166.42C111.91 167.207 112.13 168.1 112.13 169.1ZM110.25 168.72C110.25 168.027 110.097 167.433 109.79 166.94C109.483 166.433 109.063 166.053 108.53 165.8C108.01 165.533 107.43 165.4 106.79 165.4C105.87 165.4 105.083 165.693 104.43 166.28C103.79 166.867 103.423 167.68 103.33 168.72H110.25ZM118.412 175.18C117.572 175.18 116.819 175.04 116.152 174.76C115.486 174.467 114.959 174.067 114.572 173.56C114.186 173.04 113.972 172.447 113.932 171.78H115.812C115.866 172.327 116.119 172.773 116.572 173.12C117.039 173.467 117.646 173.64 118.392 173.64C119.086 173.64 119.632 173.487 120.032 173.18C120.432 172.873 120.632 172.487 120.632 172.02C120.632 171.54 120.419 171.187 119.992 170.96C119.566 170.72 118.906 170.487 118.012 170.26C117.199 170.047 116.532 169.833 116.012 169.62C115.506 169.393 115.066 169.067 114.692 168.64C114.332 168.2 114.152 167.627 114.152 166.92C114.152 166.36 114.319 165.847 114.652 165.38C114.986 164.913 115.459 164.547 116.072 164.28C116.686 164 117.386 163.86 118.172 163.86C119.386 163.86 120.366 164.167 121.112 164.78C121.859 165.393 122.259 166.233 122.312 167.3H120.492C120.452 166.727 120.219 166.267 119.792 165.92C119.379 165.573 118.819 165.4 118.112 165.4C117.459 165.4 116.939 165.54 116.552 165.82C116.166 166.1 115.972 166.467 115.972 166.92C115.972 167.28 116.086 167.58 116.312 167.82C116.552 168.047 116.846 168.233 117.192 168.38C117.552 168.513 118.046 168.667 118.672 168.84C119.459 169.053 120.099 169.267 120.592 169.48C121.086 169.68 121.506 169.987 121.852 170.4C122.212 170.813 122.399 171.353 122.412 172.02C122.412 172.62 122.246 173.16 121.912 173.64C121.579 174.12 121.106 174.5 120.492 174.78C119.892 175.047 119.199 175.18 118.412 175.18Z" fill="#4F5A6A"/>
<defs>
<filter id="filter0_bdd_4_169" x="35.9629" y="22.9377" width="128.074" height="106.125" filterUnits="userSpaceOnUse" color-interpolation-filters="sRGB">
<feFlood flood-opacity="0" result="BackgroundImageFix"/>
<feGaussianBlur in="BackgroundImage" stdDeviation="4"/>
<feComposite in2="SourceAlpha" operator="in" result="effect1_backgroundBlur_4_169"/>
<feColorMatrix in="SourceAlpha" type="matrix" values="0 0 0 0 0 0 0 0 0 0 0 0 0 0 0 0 0 0 127 0" result="hardAlpha"/>
<feOffset dy="16"/>
<feGaussianBlur stdDeviation="12"/>
<feComposite in2="hardAlpha" operator="out"/>
<feColorMatrix type="matrix" values="0 0 0 0 0.123854 0 0 0 0 0.24795 0 0 0 0 0.3625 0 0 0 0.25 0"/>
<feBlend mode="normal" in2="effect1_backgroundBlur_4_169" result="effect2_dropShadow_4_169"/>
<feColorMatrix in="SourceAlpha" type="matrix" values="0 0 0 0 0 0 0 0 0 0 0 0 0 0 0 0 0 0 127 0" result="hardAlpha"/>
<feOffset dy="16"/>
<feGaussianBlur stdDeviation="4"/>
<feComposite in2="hardAlpha" operator="out"/>
<feColorMatrix type="matrix" values="0 0 0 0 0.101961 0 0 0 0 0.184314 0 0 0 0 0.262745 0 0 0 0.03 0"/>
<feBlend mode="normal" in2="effect2_dropShadow_4_169" result="effect3_dropShadow_4_169"/>
<feBlend mode="normal" in="SourceGraphic" in2="effect3_dropShadow_4_169" result="shape"/>
</filter>
<radialGradient id="paint0_radial_4_169" cx="0" cy="0" r="1" gradientUnits="userSpaceOnUse" gradientTransform="translate(99.9999 89.0622) rotate(-90) scale(58.1245 173.3)">
<stop stop-color="#5200FF"/>
<stop offset="1" stop-color="#180660"/>
</radialGradient>
<clipPath id="clip0_4_169">
<rect width="120" height="120" fill="white" transform="translate(40)"/>
</clipPath>
</defs>
</svg>
