<svg width="292" height="200" viewBox="0 0 292 200" fill="none" xmlns="http://www.w3.org/2000/svg">
<path d="M0 16C0 11.5817 3.58172 8 8 8H284C288.418 8 292 11.5817 292 16V192C292 196.418 288.418 200 284 200H8C3.58173 200 0 196.418 0 192V16Z" fill="#F8FBFD"/>
<circle cx="68" cy="76" r="60" fill="#00D4FF"/>
<g filter="url(#filter0_bdd_4_189)">
<path fill-rule="evenodd" clip-rule="evenodd" d="M70.4771 40.25C71.726 39.5284 73.658 38.7357 76.3189 37.9965C82.286 36.339 90.8146 35.25 100.437 35.25C110.058 35.25 118.587 36.339 124.554 37.9965C127.215 38.7357 129.147 39.5284 130.396 40.25C129.147 40.9716 127.215 41.7643 124.554 42.5035C118.587 44.161 110.058 45.25 100.437 45.25C90.8146 45.25 82.286 44.161 76.3189 42.5035C73.658 41.7643 71.726 40.9716 70.4771 40.25ZM131.646 39.3459C131.667 39.3125 131.682 39.2962 131.684 39.2964C131.686 39.2966 131.675 39.3133 131.646 39.3459ZM73.6425 28.3613C80.7049 26.3996 90.1762 25.25 100.437 25.25C110.697 25.25 120.168 26.3996 127.231 28.3613C130.727 29.3325 133.918 30.5798 136.352 32.1782C138.583 33.643 141.437 36.2652 141.437 40.25C141.437 40.6988 141.4 41.1303 141.333 41.5448C141.401 41.8734 141.437 42.2138 141.437 42.5625V68C141.437 70.7614 139.198 73 136.437 73C133.675 73 131.437 70.7614 131.437 68V50.765C130.11 51.2752 128.697 51.7312 127.231 52.1387C120.168 54.1004 110.697 55.25 100.437 55.25C90.1762 55.25 80.7049 54.1004 73.6425 52.1387C72.1758 51.7312 70.7626 51.2752 69.4366 50.765V58.4645C69.6651 58.9656 70.2652 59.7347 71.6526 60.6457C73.2583 61.7 75.2226 62.475 76.6878 62.9222C83.8394 65.1048 91.9883 65.5204 100.437 65.5204C103.198 65.5204 105.437 67.7589 105.437 70.5204C105.437 73.2818 103.198 75.5204 100.437 75.5204C91.8532 75.5203 82.4341 75.1313 73.7688 72.4867C72.5787 72.1235 71.0483 71.5778 69.4366 70.8208V78.7371C69.4524 78.754 69.4697 78.7719 69.4884 78.7909C69.816 79.1223 70.3824 79.549 71.2224 80.0141C72.9085 80.9479 74.9965 81.6553 76.4735 82.0351C83.7293 83.9008 91.9734 84.25 100.437 84.25C103.198 84.25 105.437 86.4885 105.437 89.25C105.437 92.0114 103.198 94.25 100.437 94.25C91.8682 94.25 82.5443 93.9213 73.9832 91.72C72.0071 91.2119 69.0493 90.2417 66.3779 88.7623C65.0391 88.0209 63.5987 87.0572 62.3768 85.8211C61.1585 84.5888 59.9313 82.852 59.5181 80.5918C59.4032 79.9637 59.4112 79.3415 59.5248 78.75H59.4366V59.2712C59.4352 59.2044 59.4352 59.1377 59.4366 59.0713V40.25V39.0625H59.5235C60.0175 35.7376 62.5201 33.4923 64.5209 32.1782C66.9548 30.5798 70.1464 29.3325 73.6425 28.3613ZM120.312 76.0203C120.312 73.8112 122.102 72.0203 124.312 72.0203C126.521 72.0203 128.312 73.8112 128.312 76.0203V81.9712H134.312C136.521 81.9712 138.312 83.7621 138.312 85.9712C138.312 88.1803 136.521 89.9712 134.312 89.9712H128.312V96.0203C128.312 98.2295 126.521 100.02 124.312 100.02C122.102 100.02 120.312 98.2295 120.312 96.0203V89.9712H114.312C112.102 89.9712 110.312 88.1803 110.312 85.9712C110.312 83.7621 112.102 81.9712 114.312 81.9712H120.312V76.0203Z" fill="url(#paint0_radial_4_189)"/>
</g>
<path d="M19.36 161.06V175H17.54V161.06H19.36ZM27.8019 163.84C29.1352 163.84 30.2152 164.247 31.0419 165.06C31.8685 165.86 32.2819 167.02 32.2819 168.54V175H30.4819V168.8C30.4819 167.707 30.2085 166.873 29.6619 166.3C29.1152 165.713 28.3685 165.42 27.4219 165.42C26.4619 165.42 25.6952 165.72 25.1219 166.32C24.5619 166.92 24.2819 167.793 24.2819 168.94V175H22.4619V164.04H24.2819V165.6C24.6419 165.04 25.1285 164.607 25.7419 164.3C26.3685 163.993 27.0552 163.84 27.8019 163.84ZM39.7148 165.54H37.4148V175H35.5948V165.54H34.1748V164.04H35.5948V163.26C35.5948 162.033 35.9082 161.14 36.5348 160.58C37.1748 160.007 38.1948 159.72 39.5948 159.72V161.24C38.7948 161.24 38.2282 161.4 37.8948 161.72C37.5748 162.027 37.4148 162.54 37.4148 163.26V164.04H39.7148V165.54ZM46.6169 175.18C45.5902 175.18 44.6569 174.947 43.8169 174.48C42.9902 174.013 42.3369 173.353 41.8569 172.5C41.3902 171.633 41.1569 170.633 41.1569 169.5C41.1569 168.38 41.3969 167.393 41.8769 166.54C42.3702 165.673 43.0369 165.013 43.8769 164.56C44.7169 164.093 45.6569 163.86 46.6969 163.86C47.7369 163.86 48.6769 164.093 49.5169 164.56C50.3569 165.013 51.0169 165.667 51.4969 166.52C51.9902 167.373 52.2369 168.367 52.2369 169.5C52.2369 170.633 51.9835 171.633 51.4769 172.5C50.9835 173.353 50.3102 174.013 49.4569 174.48C48.6035 174.947 47.6569 175.18 46.6169 175.18ZM46.6169 173.58C47.2702 173.58 47.8835 173.427 48.4569 173.12C49.0302 172.813 49.4902 172.353 49.8369 171.74C50.1969 171.127 50.3769 170.38 50.3769 169.5C50.3769 168.62 50.2035 167.873 49.8569 167.26C49.5102 166.647 49.0569 166.193 48.4969 165.9C47.9369 165.593 47.3302 165.44 46.6769 165.44C46.0102 165.44 45.3969 165.593 44.8369 165.9C44.2902 166.193 43.8502 166.647 43.5169 167.26C43.1835 167.873 43.0169 168.62 43.0169 169.5C43.0169 170.393 43.1769 171.147 43.4969 171.76C43.8302 172.373 44.2702 172.833 44.8169 173.14C45.3635 173.433 45.9635 173.58 46.6169 173.58ZM56.4498 165.82C56.7698 165.193 57.2232 164.707 57.8098 164.36C58.4098 164.013 59.1365 163.84 59.9898 163.84V165.72H59.5098C57.4698 165.72 56.4498 166.827 56.4498 169.04V175H54.6298V164.04H56.4498V165.82ZM75.2708 163.84C76.1241 163.84 76.8841 164.02 77.5508 164.38C78.2174 164.727 78.7441 165.253 79.1308 165.96C79.5174 166.667 79.7108 167.527 79.7108 168.54V175H77.9108V168.8C77.9108 167.707 77.6374 166.873 77.0908 166.3C76.5574 165.713 75.8308 165.42 74.9108 165.42C73.9641 165.42 73.2108 165.727 72.6508 166.34C72.0908 166.94 71.8108 167.813 71.8108 168.96V175H70.0108V168.8C70.0108 167.707 69.7374 166.873 69.1908 166.3C68.6574 165.713 67.9308 165.42 67.0108 165.42C66.0641 165.42 65.3108 165.727 64.7508 166.34C64.1908 166.94 63.9108 167.813 63.9108 168.96V175H62.0908V164.04H63.9108V165.62C64.2708 165.047 64.7508 164.607 65.3508 164.3C65.9641 163.993 66.6374 163.84 67.3708 163.84C68.2908 163.84 69.1041 164.047 69.8108 164.46C70.5174 164.873 71.0441 165.48 71.3908 166.28C71.6974 165.507 72.2041 164.907 72.9108 164.48C73.6174 164.053 74.4041 163.84 75.2708 163.84ZM82.0163 169.48C82.0163 168.36 82.2429 167.38 82.6963 166.54C83.1496 165.687 83.7696 165.027 84.5563 164.56C85.3563 164.093 86.2429 163.86 87.2163 163.86C88.1763 163.86 89.0096 164.067 89.7163 164.48C90.4229 164.893 90.9496 165.413 91.2963 166.04V164.04H93.1363V175H91.2963V172.96C90.9363 173.6 90.3963 174.133 89.6763 174.56C88.9696 174.973 88.1429 175.18 87.1963 175.18C86.2229 175.18 85.3429 174.94 84.5563 174.46C83.7696 173.98 83.1496 173.307 82.6963 172.44C82.2429 171.573 82.0163 170.587 82.0163 169.48ZM91.2963 169.5C91.2963 168.673 91.1296 167.953 90.7963 167.34C90.4629 166.727 90.0096 166.26 89.4363 165.94C88.8763 165.607 88.2563 165.44 87.5763 165.44C86.8963 165.44 86.2763 165.6 85.7163 165.92C85.1563 166.24 84.7096 166.707 84.3763 167.32C84.0429 167.933 83.8763 168.653 83.8763 169.48C83.8763 170.32 84.0429 171.053 84.3763 171.68C84.7096 172.293 85.1563 172.767 85.7163 173.1C86.2763 173.42 86.8963 173.58 87.5763 173.58C88.2563 173.58 88.8763 173.42 89.4363 173.1C90.0096 172.767 90.4629 172.293 90.7963 171.68C91.1296 171.053 91.2963 170.327 91.2963 169.5ZM98.4319 165.54V172C98.4319 172.533 98.5452 172.913 98.7719 173.14C98.9985 173.353 99.3919 173.46 99.9519 173.46H101.292V175H99.6519C98.6385 175 97.8785 174.767 97.3719 174.3C96.8652 173.833 96.6119 173.067 96.6119 172V165.54H95.1919V164.04H96.6119V161.28H98.4319V164.04H101.292V165.54H98.4319ZM104.437 162.26C104.09 162.26 103.797 162.14 103.557 161.9C103.317 161.66 103.197 161.367 103.197 161.02C103.197 160.673 103.317 160.38 103.557 160.14C103.797 159.9 104.09 159.78 104.437 159.78C104.77 159.78 105.05 159.9 105.277 160.14C105.517 160.38 105.637 160.673 105.637 161.02C105.637 161.367 105.517 161.66 105.277 161.9C105.05 162.14 104.77 162.26 104.437 162.26ZM105.317 164.04V175H103.497V164.04H105.317ZM113.199 175.18C112.172 175.18 111.239 174.947 110.399 174.48C109.572 174.013 108.919 173.353 108.439 172.5C107.972 171.633 107.739 170.633 107.739 169.5C107.739 168.38 107.979 167.393 108.459 166.54C108.952 165.673 109.619 165.013 110.459 164.56C111.299 164.093 112.239 163.86 113.279 163.86C114.319 163.86 115.259 164.093 116.099 164.56C116.939 165.013 117.599 165.667 118.079 166.52C118.572 167.373 118.819 168.367 118.819 169.5C118.819 170.633 118.566 171.633 118.059 172.5C117.566 173.353 116.892 174.013 116.039 174.48C115.186 174.947 114.239 175.18 113.199 175.18ZM113.199 173.58C113.852 173.58 114.466 173.427 115.039 173.12C115.612 172.813 116.072 172.353 116.419 171.74C116.779 171.127 116.959 170.38 116.959 169.5C116.959 168.62 116.786 167.873 116.439 167.26C116.092 166.647 115.639 166.193 115.079 165.9C114.519 165.593 113.912 165.44 113.259 165.44C112.592 165.44 111.979 165.593 111.419 165.9C110.872 166.193 110.432 166.647 110.099 167.26C109.766 167.873 109.599 168.62 109.599 169.5C109.599 170.393 109.759 171.147 110.079 171.76C110.412 172.373 110.852 172.833 111.399 173.14C111.946 173.433 112.546 173.58 113.199 173.58ZM126.552 163.84C127.885 163.84 128.965 164.247 129.792 165.06C130.619 165.86 131.032 167.02 131.032 168.54V175H129.232V168.8C129.232 167.707 128.959 166.873 128.412 166.3C127.865 165.713 127.119 165.42 126.172 165.42C125.212 165.42 124.445 165.72 123.872 166.32C123.312 166.92 123.032 167.793 123.032 168.94V175H121.212V164.04H123.032V165.6C123.392 165.04 123.879 164.607 124.492 164.3C125.119 163.993 125.805 163.84 126.552 163.84ZM143.217 175.18C142.377 175.18 141.624 175.04 140.957 174.76C140.29 174.467 139.764 174.067 139.377 173.56C138.99 173.04 138.777 172.447 138.737 171.78H140.617C140.67 172.327 140.924 172.773 141.377 173.12C141.844 173.467 142.45 173.64 143.197 173.64C143.89 173.64 144.437 173.487 144.837 173.18C145.237 172.873 145.437 172.487 145.437 172.02C145.437 171.54 145.224 171.187 144.797 170.96C144.37 170.72 143.71 170.487 142.817 170.26C142.004 170.047 141.337 169.833 140.817 169.62C140.31 169.393 139.87 169.067 139.497 168.64C139.137 168.2 138.957 167.627 138.957 166.92C138.957 166.36 139.124 165.847 139.457 165.38C139.79 164.913 140.264 164.547 140.877 164.28C141.49 164 142.19 163.86 142.977 163.86C144.19 163.86 145.17 164.167 145.917 164.78C146.664 165.393 147.064 166.233 147.117 167.3H145.297C145.257 166.727 145.024 166.267 144.597 165.92C144.184 165.573 143.624 165.4 142.917 165.4C142.264 165.4 141.744 165.54 141.357 165.82C140.97 166.1 140.777 166.467 140.777 166.92C140.777 167.28 140.89 167.58 141.117 167.82C141.357 168.047 141.65 168.233 141.997 168.38C142.357 168.513 142.85 168.667 143.477 168.84C144.264 169.053 144.904 169.267 145.397 169.48C145.89 169.68 146.31 169.987 146.657 170.4C147.017 170.813 147.204 171.353 147.217 172.02C147.217 172.62 147.05 173.16 146.717 173.64C146.384 174.12 145.91 174.5 145.297 174.78C144.697 175.047 144.004 175.18 143.217 175.18ZM159.226 164.04L152.626 180.16H150.746L152.906 174.88L148.486 164.04H150.506L153.946 172.92L157.346 164.04H159.226ZM164.936 175.18C164.096 175.18 163.342 175.04 162.676 174.76C162.009 174.467 161.482 174.067 161.096 173.56C160.709 173.04 160.496 172.447 160.456 171.78H162.336C162.389 172.327 162.642 172.773 163.096 173.12C163.562 173.467 164.169 173.64 164.916 173.64C165.609 173.64 166.156 173.487 166.556 173.18C166.956 172.873 167.156 172.487 167.156 172.02C167.156 171.54 166.942 171.187 166.516 170.96C166.089 170.72 165.429 170.487 164.536 170.26C163.722 170.047 163.056 169.833 162.536 169.62C162.029 169.393 161.589 169.067 161.216 168.64C160.856 168.2 160.676 167.627 160.676 166.92C160.676 166.36 160.842 165.847 161.176 165.38C161.509 164.913 161.982 164.547 162.596 164.28C163.209 164 163.909 163.86 164.696 163.86C165.909 163.86 166.889 164.167 167.636 164.78C168.382 165.393 168.782 166.233 168.836 167.3H167.016C166.976 166.727 166.742 166.267 166.316 165.92C165.902 165.573 165.342 165.4 164.636 165.4C163.982 165.4 163.462 165.54 163.076 165.82C162.689 166.1 162.496 166.467 162.496 166.92C162.496 167.28 162.609 167.58 162.836 167.82C163.076 168.047 163.369 168.233 163.716 168.38C164.076 168.513 164.569 168.667 165.196 168.84C165.982 169.053 166.622 169.267 167.116 169.48C167.609 169.68 168.029 169.987 168.376 170.4C168.736 170.813 168.922 171.353 168.936 172.02C168.936 172.62 168.769 173.16 168.436 173.64C168.102 174.12 167.629 174.5 167.016 174.78C166.416 175.047 165.722 175.18 164.936 175.18ZM173.725 165.54V172C173.725 172.533 173.838 172.913 174.065 173.14C174.292 173.353 174.685 173.46 175.245 173.46H176.585V175H174.945C173.932 175 173.172 174.767 172.665 174.3C172.158 173.833 171.905 173.067 171.905 172V165.54H170.485V164.04H171.905V161.28H173.725V164.04H176.585V165.54H173.725ZM188.79 169.1C188.79 169.447 188.77 169.813 188.73 170.2H179.97C180.037 171.28 180.403 172.127 181.07 172.74C181.75 173.34 182.57 173.64 183.53 173.64C184.317 173.64 184.97 173.46 185.49 173.1C186.023 172.727 186.397 172.233 186.61 171.62H188.57C188.277 172.673 187.69 173.533 186.81 174.2C185.93 174.853 184.837 175.18 183.53 175.18C182.49 175.18 181.557 174.947 180.73 174.48C179.917 174.013 179.277 173.353 178.81 172.5C178.343 171.633 178.11 170.633 178.11 169.5C178.11 168.367 178.337 167.373 178.79 166.52C179.243 165.667 179.877 165.013 180.69 164.56C181.517 164.093 182.463 163.86 183.53 163.86C184.57 163.86 185.49 164.087 186.29 164.54C187.09 164.993 187.703 165.62 188.13 166.42C188.57 167.207 188.79 168.1 188.79 169.1ZM186.91 168.72C186.91 168.027 186.757 167.433 186.45 166.94C186.143 166.433 185.723 166.053 185.19 165.8C184.67 165.533 184.09 165.4 183.45 165.4C182.53 165.4 181.743 165.693 181.09 166.28C180.45 166.867 180.083 167.68 179.99 168.72H186.91ZM204.372 163.84C205.226 163.84 205.986 164.02 206.652 164.38C207.319 164.727 207.846 165.253 208.232 165.96C208.619 166.667 208.812 167.527 208.812 168.54V175H207.012V168.8C207.012 167.707 206.739 166.873 206.192 166.3C205.659 165.713 204.932 165.42 204.012 165.42C203.066 165.42 202.312 165.727 201.752 166.34C201.192 166.94 200.912 167.813 200.912 168.96V175H199.112V168.8C199.112 167.707 198.839 166.873 198.292 166.3C197.759 165.713 197.032 165.42 196.112 165.42C195.166 165.42 194.412 165.727 193.852 166.34C193.292 166.94 193.012 167.813 193.012 168.96V175H191.192V164.04H193.012V165.62C193.372 165.047 193.852 164.607 194.452 164.3C195.066 163.993 195.739 163.84 196.472 163.84C197.392 163.84 198.206 164.047 198.912 164.46C199.619 164.873 200.146 165.48 200.492 166.28C200.799 165.507 201.306 164.907 202.012 164.48C202.719 164.053 203.506 163.84 204.372 163.84ZM215.678 175.18C214.838 175.18 214.084 175.04 213.418 174.76C212.751 174.467 212.224 174.067 211.838 173.56C211.451 173.04 211.238 172.447 211.198 171.78H213.078C213.131 172.327 213.384 172.773 213.838 173.12C214.304 173.467 214.911 173.64 215.658 173.64C216.351 173.64 216.898 173.487 217.298 173.18C217.698 172.873 217.898 172.487 217.898 172.02C217.898 171.54 217.684 171.187 217.258 170.96C216.831 170.72 216.171 170.487 215.278 170.26C214.464 170.047 213.798 169.833 213.278 169.62C212.771 169.393 212.331 169.067 211.958 168.64C211.598 168.2 211.418 167.627 211.418 166.92C211.418 166.36 211.584 165.847 211.918 165.38C212.251 164.913 212.724 164.547 213.338 164.28C213.951 164 214.651 163.86 215.438 163.86C216.651 163.86 217.631 164.167 218.378 164.78C219.124 165.393 219.524 166.233 219.578 167.3H217.758C217.718 166.727 217.484 166.267 217.058 165.92C216.644 165.573 216.084 165.4 215.378 165.4C214.724 165.4 214.204 165.54 213.818 165.82C213.431 166.1 213.238 166.467 213.238 166.92C213.238 167.28 213.351 167.58 213.578 167.82C213.818 168.047 214.111 168.233 214.458 168.38C214.818 168.513 215.311 168.667 215.938 168.84C216.724 169.053 217.364 169.267 217.858 169.48C218.351 169.68 218.771 169.987 219.118 170.4C219.478 170.813 219.664 171.353 219.678 172.02C219.678 172.62 219.511 173.16 219.178 173.64C218.844 174.12 218.371 174.5 217.758 174.78C217.158 175.047 216.464 175.18 215.678 175.18Z" fill="#4F5A6A"/>
<defs>
<filter id="filter0_bdd_4_189" x="35.4355" y="17.25" width="130.001" height="122.77" filterUnits="userSpaceOnUse" color-interpolation-filters="sRGB">
<feFlood flood-opacity="0" result="BackgroundImageFix"/>
<feGaussianBlur in="BackgroundImage" stdDeviation="4"/>
<feComposite in2="SourceAlpha" operator="in" result="effect1_backgroundBlur_4_189"/>
<feColorMatrix in="SourceAlpha" type="matrix" values="0 0 0 0 0 0 0 0 0 0 0 0 0 0 0 0 0 0 127 0" result="hardAlpha"/>
<feOffset dy="16"/>
<feGaussianBlur stdDeviation="12"/>
<feComposite in2="hardAlpha" operator="out"/>
<feColorMatrix type="matrix" values="0 0 0 0 0.123854 0 0 0 0 0.24795 0 0 0 0 0.3625 0 0 0 0.25 0"/>
<feBlend mode="normal" in2="effect1_backgroundBlur_4_189" result="effect2_dropShadow_4_189"/>
<feColorMatrix in="SourceAlpha" type="matrix" values="0 0 0 0 0 0 0 0 0 0 0 0 0 0 0 0 0 0 127 0" result="hardAlpha"/>
<feOffset dy="16"/>
<feGaussianBlur stdDeviation="4"/>
<feComposite in2="hardAlpha" operator="out"/>
<feColorMatrix type="matrix" values="0 0 0 0 0.101961 0 0 0 0 0.184314 0 0 0 0 0.262745 0 0 0 0.03 0"/>
<feBlend mode="normal" in2="effect2_dropShadow_4_189" result="effect3_dropShadow_4_189"/>
<feBlend mode="normal" in="SourceGraphic" in2="effect3_dropShadow_4_189" result="shape"/>
</filter>
<radialGradient id="paint0_radial_4_189" cx="0" cy="0" r="1" gradientUnits="userSpaceOnUse" gradientTransform="translate(100.436 100.02) rotate(-90) scale(74.7703 177.471)">
<stop stop-color="#5200FF"/>
<stop offset="1" stop-color="#180660"/>
</radialGradient>
</defs>
</svg>
