<svg width="292" height="200" viewBox="0 0 292 200" fill="none" xmlns="http://www.w3.org/2000/svg">
<path d="M0 16C0 11.5817 3.58172 8 8 8H284C288.418 8 292 11.5817 292 16V192C292 196.418 288.418 200 284 200H8C3.58173 200 0 196.418 0 192V16Z" fill="#F8FBFD"/>
<circle cx="68" cy="76" r="60" fill="#00D4FF"/>
<g filter="url(#filter0_bdd_4_188)">
<path fill-rule="evenodd" clip-rule="evenodd" d="M73.8438 46V34H85.8438V46H73.8438ZM63.8438 32C63.8438 27.5817 67.4255 24 71.8438 24H87.8438C92.262 24 95.8438 27.5817 95.8438 32V48C95.8438 52.4183 92.262 56 87.8438 56H71.8438C67.4255 56 63.8438 52.4183 63.8438 48V32ZM73.8438 86V74H85.8438V86H73.8438ZM63.8438 72C63.8438 67.5817 67.4255 64 71.8438 64H87.8438C92.262 64 95.8438 67.5817 95.8438 72V88C95.8438 92.4183 92.262 96 87.8438 96H71.8438C67.4255 96 63.8438 92.4183 63.8438 88V72ZM114.156 34V46H126.156V34H114.156ZM112.156 24C107.738 24 104.156 27.5817 104.156 32V48C104.156 52.4183 107.738 56 112.156 56H128.156C132.575 56 136.156 52.4183 136.156 48V32C136.156 27.5817 132.575 24 128.156 24H112.156ZM120.156 66C117.947 66 116.156 67.7909 116.156 70V75.9509H110.156C107.947 75.9509 106.156 77.7417 106.156 79.9509C106.156 82.16 107.947 83.9509 110.156 83.9509H116.156V90C116.156 92.2091 117.947 94 120.156 94C122.365 94 124.156 92.2091 124.156 90V83.9509H130.156C132.365 83.9509 134.156 82.16 134.156 79.9509C134.156 77.7417 132.365 75.9509 130.156 75.9509H124.156V70C124.156 67.7909 122.365 66 120.156 66Z" fill="url(#paint0_radial_4_188)"/>
</g>
<path d="M25.78 171.9H19.7L18.58 175H16.66L21.7 161.14H23.8L28.82 175H26.9L25.78 171.9ZM25.26 170.42L22.74 163.38L20.22 170.42H25.26ZM32.8366 166.06C33.1966 165.433 33.7299 164.913 34.4366 164.5C35.1566 164.073 35.9899 163.86 36.9366 163.86C37.9099 163.86 38.7899 164.093 39.5766 164.56C40.3766 165.027 41.0032 165.687 41.4566 166.54C41.9099 167.38 42.1366 168.36 42.1366 169.48C42.1366 170.587 41.9099 171.573 41.4566 172.44C41.0032 173.307 40.3766 173.98 39.5766 174.46C38.7899 174.94 37.9099 175.18 36.9366 175.18C36.0032 175.18 35.1766 174.973 34.4566 174.56C33.7499 174.133 33.2099 173.607 32.8366 172.98V180.2H31.0166V164.04H32.8366V166.06ZM40.2766 169.48C40.2766 168.653 40.1099 167.933 39.7766 167.32C39.4432 166.707 38.9899 166.24 38.4166 165.92C37.8566 165.6 37.2366 165.44 36.5566 165.44C35.8899 165.44 35.2699 165.607 34.6966 165.94C34.1366 166.26 33.6832 166.733 33.3366 167.36C33.0032 167.973 32.8366 168.687 32.8366 169.5C32.8366 170.327 33.0032 171.053 33.3366 171.68C33.6832 172.293 34.1366 172.767 34.6966 173.1C35.2699 173.42 35.8899 173.58 36.5566 173.58C37.2366 173.58 37.8566 173.42 38.4166 173.1C38.9899 172.767 39.4432 172.293 39.7766 171.68C40.1099 171.053 40.2766 170.32 40.2766 169.48ZM46.3522 166.06C46.7122 165.433 47.2455 164.913 47.9522 164.5C48.6722 164.073 49.5055 163.86 50.4522 163.86C51.4255 163.86 52.3055 164.093 53.0922 164.56C53.8922 165.027 54.5189 165.687 54.9722 166.54C55.4255 167.38 55.6522 168.36 55.6522 169.48C55.6522 170.587 55.4255 171.573 54.9722 172.44C54.5189 173.307 53.8922 173.98 53.0922 174.46C52.3055 174.94 51.4255 175.18 50.4522 175.18C49.5189 175.18 48.6922 174.973 47.9722 174.56C47.2655 174.133 46.7255 173.607 46.3522 172.98V180.2H44.5322V164.04H46.3522V166.06ZM53.7922 169.48C53.7922 168.653 53.6255 167.933 53.2922 167.32C52.9589 166.707 52.5055 166.24 51.9322 165.92C51.3722 165.6 50.7522 165.44 50.0722 165.44C49.4055 165.44 48.7855 165.607 48.2122 165.94C47.6522 166.26 47.1989 166.733 46.8522 167.36C46.5189 167.973 46.3522 168.687 46.3522 169.5C46.3522 170.327 46.5189 171.053 46.8522 171.68C47.1989 172.293 47.6522 172.767 48.2122 173.1C48.7855 173.42 49.4055 173.58 50.0722 173.58C50.7522 173.58 51.3722 173.42 51.9322 173.1C52.5055 172.767 52.9589 172.293 53.2922 171.68C53.6255 171.053 53.7922 170.32 53.7922 169.48ZM61.9278 175.18C61.0878 175.18 60.3345 175.04 59.6678 174.76C59.0011 174.467 58.4745 174.067 58.0878 173.56C57.7011 173.04 57.4878 172.447 57.4478 171.78H59.3278C59.3811 172.327 59.6345 172.773 60.0878 173.12C60.5545 173.467 61.1611 173.64 61.9078 173.64C62.6011 173.64 63.1478 173.487 63.5478 173.18C63.9478 172.873 64.1478 172.487 64.1478 172.02C64.1478 171.54 63.9345 171.187 63.5078 170.96C63.0811 170.72 62.4211 170.487 61.5278 170.26C60.7145 170.047 60.0478 169.833 59.5278 169.62C59.0211 169.393 58.5811 169.067 58.2078 168.64C57.8478 168.2 57.6678 167.627 57.6678 166.92C57.6678 166.36 57.8345 165.847 58.1678 165.38C58.5011 164.913 58.9745 164.547 59.5878 164.28C60.2011 164 60.9011 163.86 61.6878 163.86C62.9011 163.86 63.8811 164.167 64.6278 164.78C65.3745 165.393 65.7745 166.233 65.8278 167.3H64.0078C63.9678 166.727 63.7345 166.267 63.3078 165.92C62.8945 165.573 62.3345 165.4 61.6278 165.4C60.9745 165.4 60.4545 165.54 60.0678 165.82C59.6811 166.1 59.4878 166.467 59.4878 166.92C59.4878 167.28 59.6011 167.58 59.8278 167.82C60.0678 168.047 60.3611 168.233 60.7078 168.38C61.0678 168.513 61.5611 168.667 62.1878 168.84C62.9745 169.053 63.6145 169.267 64.1078 169.48C64.6011 169.68 65.0211 169.987 65.3678 170.4C65.7278 170.813 65.9145 171.353 65.9278 172.02C65.9278 172.62 65.7611 173.16 65.4278 173.64C65.0945 174.12 64.6211 174.5 64.0078 174.78C63.4078 175.047 62.7145 175.18 61.9278 175.18Z" fill="#4F5A6A"/>
<defs>
<filter id="filter0_bdd_4_188" x="39.8438" y="16" width="120.312" height="120" filterUnits="userSpaceOnUse" color-interpolation-filters="sRGB">
<feFlood flood-opacity="0" result="BackgroundImageFix"/>
<feGaussianBlur in="BackgroundImage" stdDeviation="4"/>
<feComposite in2="SourceAlpha" operator="in" result="effect1_backgroundBlur_4_188"/>
<feColorMatrix in="SourceAlpha" type="matrix" values="0 0 0 0 0 0 0 0 0 0 0 0 0 0 0 0 0 0 127 0" result="hardAlpha"/>
<feOffset dy="16"/>
<feGaussianBlur stdDeviation="12"/>
<feComposite in2="hardAlpha" operator="out"/>
<feColorMatrix type="matrix" values="0 0 0 0 0.123854 0 0 0 0 0.24795 0 0 0 0 0.3625 0 0 0 0.25 0"/>
<feBlend mode="normal" in2="effect1_backgroundBlur_4_188" result="effect2_dropShadow_4_188"/>
<feColorMatrix in="SourceAlpha" type="matrix" values="0 0 0 0 0 0 0 0 0 0 0 0 0 0 0 0 0 0 127 0" result="hardAlpha"/>
<feOffset dy="16"/>
<feGaussianBlur stdDeviation="4"/>
<feComposite in2="hardAlpha" operator="out"/>
<feColorMatrix type="matrix" values="0 0 0 0 0.101961 0 0 0 0 0.184314 0 0 0 0 0.262745 0 0 0 0.03 0"/>
<feBlend mode="normal" in2="effect2_dropShadow_4_188" result="effect3_dropShadow_4_188"/>
<feBlend mode="normal" in="SourceGraphic" in2="effect3_dropShadow_4_188" result="shape"/>
</filter>
<radialGradient id="paint0_radial_4_188" cx="0" cy="0" r="1" gradientUnits="userSpaceOnUse" gradientTransform="translate(100 96) rotate(-90) scale(72 156.502)">
<stop stop-color="#5200FF"/>
<stop offset="1" stop-color="#180660"/>
</radialGradient>
</defs>
</svg>
