<svg width="292" height="200" viewBox="0 0 292 200" fill="none" xmlns="http://www.w3.org/2000/svg">
<path d="M0 16C0 11.5817 3.58172 8 8 8H284C288.418 8 292 11.5817 292 16V192C292 196.418 288.418 200 284 200H8C3.58173 200 0 196.418 0 192V16Z" fill="#F8FBFD"/>
<circle cx="68" cy="76" r="60" fill="#00D4FF"/>
<g filter="url(#filter0_bdd_4_187)">
<path fill-rule="evenodd" clip-rule="evenodd" d="M127 28H73C70.2386 28 68 30.2386 68 33V38H132V33C132 30.2386 129.761 28 127 28ZM68 87V48H132V87C132 89.7614 129.761 92 127 92H73C70.2386 92 68 89.7614 68 87ZM73 18C64.7157 18 58 24.7157 58 33V87C58 95.2843 64.7157 102 73 102H127C135.284 102 142 95.2843 142 87V33C142 24.7157 135.284 18 127 18H73ZM93 74C90.2386 74 88 76.2386 88 79C88 81.7614 90.2386 84 93 84H119C121.761 84 124 81.7614 124 79C124 76.2386 121.761 74 119 74H93Z" fill="url(#paint0_radial_4_187)"/>
</g>
<path d="M21.96 175.14C21.04 175.14 20.2133 174.98 19.48 174.66C18.76 174.327 18.1933 173.873 17.78 173.3C17.3667 172.713 17.1533 172.04 17.14 171.28H19.08C19.1467 171.933 19.4133 172.487 19.88 172.94C20.36 173.38 21.0533 173.6 21.96 173.6C22.8267 173.6 23.5067 173.387 24 172.96C24.5067 172.52 24.76 171.96 24.76 171.28C24.76 170.747 24.6133 170.313 24.32 169.98C24.0267 169.647 23.66 169.393 23.22 169.22C22.78 169.047 22.1867 168.86 21.44 168.66C20.52 168.42 19.78 168.18 19.22 167.94C18.6733 167.7 18.2 167.327 17.8 166.82C17.4133 166.3 17.22 165.607 17.22 164.74C17.22 163.98 17.4133 163.307 17.8 162.72C18.1867 162.133 18.7267 161.68 19.42 161.36C20.1267 161.04 20.9333 160.88 21.84 160.88C23.1467 160.88 24.2133 161.207 25.04 161.86C25.88 162.513 26.3533 163.38 26.46 164.46H24.46C24.3933 163.927 24.1133 163.46 23.62 163.06C23.1267 162.647 22.4733 162.44 21.66 162.44C20.9 162.44 20.28 162.64 19.8 163.04C19.32 163.427 19.08 163.973 19.08 164.68C19.08 165.187 19.22 165.6 19.5 165.92C19.7933 166.24 20.1467 166.487 20.56 166.66C20.9867 166.82 21.58 167.007 22.34 167.22C23.26 167.473 24 167.727 24.56 167.98C25.12 168.22 25.6 168.6 26 169.12C26.4 169.627 26.6 170.32 26.6 171.2C26.6 171.88 26.42 172.52 26.06 173.12C25.7 173.72 25.1667 174.207 24.46 174.58C23.7533 174.953 22.92 175.14 21.96 175.14ZM34.0583 175.18C33.0316 175.18 32.0983 174.947 31.2583 174.48C30.4316 174.013 29.7783 173.353 29.2983 172.5C28.8316 171.633 28.5983 170.633 28.5983 169.5C28.5983 168.38 28.8383 167.393 29.3183 166.54C29.8116 165.673 30.4783 165.013 31.3183 164.56C32.1583 164.093 33.0983 163.86 34.1383 163.86C35.1783 163.86 36.1183 164.093 36.9583 164.56C37.7983 165.013 38.4583 165.667 38.9383 166.52C39.4316 167.373 39.6783 168.367 39.6783 169.5C39.6783 170.633 39.4249 171.633 38.9183 172.5C38.4249 173.353 37.7516 174.013 36.8983 174.48C36.0449 174.947 35.0983 175.18 34.0583 175.18ZM34.0583 173.58C34.7116 173.58 35.3249 173.427 35.8983 173.12C36.4716 172.813 36.9316 172.353 37.2783 171.74C37.6383 171.127 37.8183 170.38 37.8183 169.5C37.8183 168.62 37.6449 167.873 37.2983 167.26C36.9516 166.647 36.4983 166.193 35.9383 165.9C35.3783 165.593 34.7716 165.44 34.1183 165.44C33.4516 165.44 32.8383 165.593 32.2783 165.9C31.7316 166.193 31.2916 166.647 30.9583 167.26C30.6249 167.873 30.4583 168.62 30.4583 169.5C30.4583 170.393 30.6183 171.147 30.9383 171.76C31.2716 172.373 31.7116 172.833 32.2583 173.14C32.8049 173.433 33.4049 173.58 34.0583 173.58ZM46.5313 165.54H44.2313V175H42.4113V165.54H40.9913V164.04H42.4113V163.26C42.4113 162.033 42.7246 161.14 43.3513 160.58C43.9913 160.007 45.0113 159.72 46.4112 159.72V161.24C45.6113 161.24 45.0446 161.4 44.7113 161.72C44.3913 162.027 44.2313 162.54 44.2313 163.26V164.04H46.5313V165.54ZM50.8733 165.54V172C50.8733 172.533 50.9866 172.913 51.2133 173.14C51.4399 173.353 51.8333 173.46 52.3933 173.46H53.7333V175H52.0933C51.0799 175 50.3199 174.767 49.8133 174.3C49.3066 173.833 49.0533 173.067 49.0533 172V165.54H47.6333V164.04H49.0533V161.28H50.8733V164.04H53.7333V165.54H50.8733ZM70.5384 164.04L67.1184 175H65.2384L62.5984 166.3L59.9584 175H58.0784L54.6384 164.04H56.4984L59.0184 173.24L61.7384 164.04H63.5984L66.2584 173.26L68.7384 164.04H70.5384ZM71.6647 169.48C71.6647 168.36 71.8914 167.38 72.3447 166.54C72.798 165.687 73.418 165.027 74.2047 164.56C75.0047 164.093 75.8914 163.86 76.8647 163.86C77.8247 163.86 78.658 164.067 79.3647 164.48C80.0714 164.893 80.598 165.413 80.9447 166.04V164.04H82.7847V175H80.9447V172.96C80.5847 173.6 80.0447 174.133 79.3247 174.56C78.618 174.973 77.7914 175.18 76.8447 175.18C75.8714 175.18 74.9914 174.94 74.2047 174.46C73.418 173.98 72.798 173.307 72.3447 172.44C71.8914 171.573 71.6647 170.587 71.6647 169.48ZM80.9447 169.5C80.9447 168.673 80.778 167.953 80.4447 167.34C80.1114 166.727 79.658 166.26 79.0847 165.94C78.5247 165.607 77.9047 165.44 77.2247 165.44C76.5447 165.44 75.9247 165.6 75.3647 165.92C74.8047 166.24 74.358 166.707 74.0247 167.32C73.6914 167.933 73.5247 168.653 73.5247 169.48C73.5247 170.32 73.6914 171.053 74.0247 171.68C74.358 172.293 74.8047 172.767 75.3647 173.1C75.9247 173.42 76.5447 173.58 77.2247 173.58C77.9047 173.58 78.5247 173.42 79.0847 173.1C79.658 172.767 80.1114 172.293 80.4447 171.68C80.778 171.053 80.9447 170.327 80.9447 169.5ZM87.6803 165.82C88.0003 165.193 88.4536 164.707 89.0403 164.36C89.6403 164.013 90.367 163.84 91.2203 163.84V165.72H90.7403C88.7003 165.72 87.6803 166.827 87.6803 169.04V175H85.8603V164.04H87.6803V165.82ZM103.321 169.1C103.321 169.447 103.301 169.813 103.261 170.2H94.5013C94.5679 171.28 94.9346 172.127 95.6013 172.74C96.2813 173.34 97.1013 173.64 98.0613 173.64C98.8479 173.64 99.5013 173.46 100.021 173.1C100.555 172.727 100.928 172.233 101.141 171.62H103.101C102.808 172.673 102.221 173.533 101.341 174.2C100.461 174.853 99.3679 175.18 98.0613 175.18C97.0213 175.18 96.0879 174.947 95.2613 174.48C94.4479 174.013 93.8079 173.353 93.3413 172.5C92.8746 171.633 92.6413 170.633 92.6413 169.5C92.6413 168.367 92.8679 167.373 93.3213 166.52C93.7746 165.667 94.4079 165.013 95.2213 164.56C96.0479 164.093 96.9946 163.86 98.0613 163.86C99.1013 163.86 100.021 164.087 100.821 164.54C101.621 164.993 102.235 165.62 102.661 166.42C103.101 167.207 103.321 168.1 103.321 169.1ZM101.441 168.72C101.441 168.027 101.288 167.433 100.981 166.94C100.675 166.433 100.255 166.053 99.7213 165.8C99.2013 165.533 98.6213 165.4 97.9813 165.4C97.0613 165.4 96.2746 165.693 95.6213 166.28C94.9813 166.867 94.6146 167.68 94.5213 168.72H101.441Z" fill="#4F5A6A"/>
<defs>
<filter id="filter0_bdd_4_187" x="34" y="10" width="132" height="132" filterUnits="userSpaceOnUse" color-interpolation-filters="sRGB">
<feFlood flood-opacity="0" result="BackgroundImageFix"/>
<feGaussianBlur in="BackgroundImage" stdDeviation="4"/>
<feComposite in2="SourceAlpha" operator="in" result="effect1_backgroundBlur_4_187"/>
<feColorMatrix in="SourceAlpha" type="matrix" values="0 0 0 0 0 0 0 0 0 0 0 0 0 0 0 0 0 0 127 0" result="hardAlpha"/>
<feOffset dy="16"/>
<feGaussianBlur stdDeviation="12"/>
<feComposite in2="hardAlpha" operator="out"/>
<feColorMatrix type="matrix" values="0 0 0 0 0.123854 0 0 0 0 0.24795 0 0 0 0 0.3625 0 0 0 0.25 0"/>
<feBlend mode="normal" in2="effect1_backgroundBlur_4_187" result="effect2_dropShadow_4_187"/>
<feColorMatrix in="SourceAlpha" type="matrix" values="0 0 0 0 0 0 0 0 0 0 0 0 0 0 0 0 0 0 127 0" result="hardAlpha"/>
<feOffset dy="16"/>
<feGaussianBlur stdDeviation="4"/>
<feComposite in2="hardAlpha" operator="out"/>
<feColorMatrix type="matrix" values="0 0 0 0 0.101961 0 0 0 0 0.184314 0 0 0 0 0.262745 0 0 0 0.03 0"/>
<feBlend mode="normal" in2="effect2_dropShadow_4_187" result="effect3_dropShadow_4_187"/>
<feBlend mode="normal" in="SourceGraphic" in2="effect3_dropShadow_4_187" result="shape"/>
</filter>
<radialGradient id="paint0_radial_4_187" cx="0" cy="0" r="1" gradientUnits="userSpaceOnUse" gradientTransform="translate(100 102) rotate(-90) scale(84 181.797)">
<stop stop-color="#5200FF"/>
<stop offset="1" stop-color="#180660"/>
</radialGradient>
</defs>
</svg>
